<svg width="54" height="54" viewBox="0 0 54 54" fill="none" xmlns="http://www.w3.org/2000/svg">
<path d="M50.625 27C50.625 40.041 40.0528 50.625 27 50.625C13.9472 50.625 3.375 40.041 3.375 27C3.375 13.9472 13.9472 3.375 27 3.375C40.0528 3.375 50.625 13.9472 50.625 27Z" fill="#283544"/>
<path d="M38.0736 21.0218C37.9446 21.097 34.8757 22.6842 34.8757 26.2033C35.0203 30.2165 38.7486 31.624 38.8125 31.624C38.7486 31.6992 38.2496 33.5412 36.7718 35.4722C35.5989 37.1355 34.2971 38.8125 32.3203 38.8125C30.44 38.8125 29.765 37.7039 27.5953 37.7039C25.2653 37.7039 24.606 38.8125 22.8221 38.8125C20.8453 38.8125 19.4471 37.0456 18.2103 35.3979C16.6035 33.2414 15.2378 29.8571 15.1895 26.6076C15.157 24.8857 15.5113 23.1931 16.4106 21.7553C17.6799 19.7482 19.946 18.3857 22.4206 18.3408C24.3167 18.2812 26.0042 19.5539 27.1614 19.5539C28.2703 19.5539 30.3435 18.3408 32.6893 18.3408C33.7018 18.3418 36.4018 18.626 38.0736 21.0218ZM27.001 17.997C26.6635 16.4245 27.5953 14.852 28.4632 13.8489C29.5721 12.6359 31.3235 11.8125 32.8339 11.8125C32.9303 13.385 32.3193 14.9272 31.2271 16.0504C30.2471 17.2635 28.5596 18.1767 27.001 17.997Z" fill="white"/>
</svg>
