<svg width="795" height="816" viewBox="0 0 795 816" fill="none" xmlns="http://www.w3.org/2000/svg">
<g filter="url(#filter0_d)">
<rect x="15" y="187.629" width="608.07" height="638.258" rx="8" transform="rotate(-16.6895 15 187.629)" fill="#F4F7FA"/>
<rect width="592.07" height="622.258" transform="translate(24.9604 192.994) rotate(-16.6895)" fill="#F4F7FA"/>
<g clip-path="url(#clip0)">
<rect width="74.0087" height="77.7822" transform="translate(24.9604 192.994) rotate(-16.6895)" fill="#E8EDF9"/>
<path d="M39.937 197.558C40.077 198.025 40.082 198.477 39.9518 198.916C39.8204 199.35 39.5787 199.735 39.2268 200.068C39.7938 200.151 40.2707 200.353 40.6574 200.674C41.0484 200.995 41.3198 201.408 41.4717 201.915C41.723 202.753 41.6388 203.504 41.2192 204.167C40.7983 204.826 40.1164 205.297 39.1735 205.58C38.2262 205.864 37.3927 205.845 36.6729 205.523C35.9576 205.2 35.4749 204.621 35.2249 203.787C35.0718 203.277 35.0697 202.778 35.2186 202.291C35.3675 201.804 35.6537 201.378 36.0772 201.013C35.6041 200.926 35.1931 200.738 34.8444 200.447C34.4987 200.151 34.2559 199.77 34.1158 199.303C33.8724 198.491 33.9413 197.768 34.3225 197.136C34.7036 196.503 35.3395 196.053 36.23 195.786C37.1249 195.517 37.9056 195.543 38.5721 195.861C39.2386 196.18 39.6935 196.746 39.937 197.558ZM39.857 202.313C39.7156 201.842 39.4599 201.504 39.0897 201.301C38.7227 201.093 38.3078 201.058 37.8451 201.196C37.3823 201.335 37.0545 201.59 36.8615 201.962C36.6728 202.333 36.6498 202.756 36.7925 203.232C36.9325 203.699 37.1798 204.032 37.5342 204.23C37.893 204.427 38.3124 204.453 38.7926 204.309C39.2728 204.165 39.6055 203.918 39.7906 203.568C39.9801 203.216 40.0022 202.798 39.857 202.313ZM38.37 198.092C38.2457 197.677 38.0236 197.372 37.7036 197.178C37.3824 196.979 37.0188 196.941 36.6128 197.063C36.2069 197.184 35.9246 197.409 35.7661 197.738C35.6063 198.061 35.5925 198.444 35.7247 198.885C35.8555 199.321 36.0775 199.633 36.3904 199.82C36.7077 200.005 37.0694 200.037 37.4753 199.916C37.8813 199.794 38.1635 199.569 38.3221 199.241C38.4849 198.911 38.5009 198.528 38.37 198.092Z" fill="#B7C0D8"/>
<path d="M56.9771 197.775C57.5151 197.614 58.0648 197.614 58.5785 197.748C58.9338 197.353 59.3929 197.051 59.9309 196.889L68.0538 194.454C68.5918 194.293 69.1416 194.293 69.6552 194.427C70.0105 194.032 70.4696 193.73 71.0076 193.568L78.3921 191.354C80.0234 190.865 81.7626 191.859 82.2766 193.573L84.3708 200.558C84.6638 201.535 84.5019 202.587 83.9339 203.396L80.4532 208.355L85.4038 220.176C86.7144 223.305 88.6373 224.516 91.5983 226.812C92.1429 227.235 92.5462 227.826 92.7475 228.498L94.609 234.707C95.1231 236.421 94.2173 238.207 92.586 238.697L63.7865 247.331C62.1551 247.82 60.416 246.827 59.9019 245.112L58.0404 238.903C57.8391 238.232 57.8504 237.516 58.0728 236.864C59.2818 233.317 60.2215 231.248 59.5942 227.914L57.2248 215.319L51.5898 213.093C50.6703 212.73 49.9567 211.941 49.6637 210.964L47.5695 203.979C47.0555 202.264 47.9613 200.478 49.5926 199.989L56.9771 197.775Z" fill="#F4F7FA"/>
<path d="M50.5234 203.093L57.9079 200.879L59.304 205.536L62.2578 204.65L60.8617 199.994L68.9847 197.558L70.3808 202.215L73.3346 201.329L71.9385 196.673L79.3229 194.459L81.4171 201.444L76.9057 207.872L82.5709 221.399L62.6328 227.376L59.9213 212.964L52.6176 210.078L50.5234 203.093Z" fill="#34364C"/>
<path d="M63.5635 230.481L83.5017 224.503L89.7939 229.383L91.6553 235.592L62.8558 244.227L60.9943 238.018L63.5635 230.481Z" fill="#34364C"/>
</g>
<rect width="74.0087" height="77.7822" transform="translate(69.6362 342.006) rotate(-16.6895)" fill="#E8EDF9"/>
<path d="M82.7909 344.325L83.1855 345.641L82.9891 345.7C82.1025 345.98 81.4642 346.438 81.0743 347.073C80.6844 347.709 80.5701 348.478 80.7315 349.381C81.0813 348.691 81.6534 348.227 82.4479 347.989C83.2904 347.736 84.0429 347.834 84.7055 348.282C85.3724 348.729 85.8465 349.422 86.1279 350.361C86.4185 351.33 86.3681 352.201 85.9769 352.975C85.5887 353.743 84.9319 354.266 84.0064 354.544C83.0548 354.829 82.1768 354.709 81.3724 354.184C80.5723 353.658 80.0015 352.826 79.6599 351.686L79.497 351.143C78.9957 349.471 79.009 348.04 79.537 346.849C80.0693 345.657 81.0994 344.832 82.6272 344.374L82.7909 344.325ZM82.4463 349.388C82.0971 349.493 81.8057 349.687 81.5721 349.971C81.3429 350.254 81.2097 350.579 81.1725 350.947L81.3178 351.432C81.5298 352.139 81.8471 352.658 82.2696 352.988C82.6908 353.313 83.1371 353.406 83.6085 353.264C84.08 353.123 84.4002 352.834 84.5692 352.398C84.7382 351.962 84.7363 351.456 84.5636 350.88C84.3908 350.304 84.1104 349.876 83.7224 349.598C83.3344 349.319 82.9091 349.249 82.4463 349.388Z" fill="#B7C0D8"/>
<rect width="74.0087" height="77.7822" transform="translate(114.312 491.017) rotate(-16.6895)" fill="#E8EDF9"/>
<path d="M129.752 499.388L130.937 499.032L131.32 500.309L130.135 500.664L130.771 502.786L129.18 503.263L128.544 501.142L124.425 502.376L124.089 501.421L126.269 493.745L127.913 493.252L129.752 499.388ZM125.666 500.613L128.161 499.865L126.967 495.884L126.912 496.128L125.666 500.613Z" fill="#B7C0D8"/>
<g clip-path="url(#clip1)">
<rect width="74.0087" height="77.7822" transform="translate(158.988 640.028) rotate(-16.6895)" fill="#E8EDF9"/>
<path d="M176.475 651.489L170.065 653.411L169.737 652.317L171.874 647.901C172.179 647.253 172.377 646.73 172.467 646.332C172.56 645.928 172.555 645.554 172.451 645.209C172.315 644.755 172.076 644.427 171.735 644.225C171.398 644.021 171.014 643.985 170.581 644.114C170.066 644.269 169.714 644.545 169.525 644.945C169.335 645.344 169.322 645.817 169.486 646.362L167.895 646.839C167.72 646.259 167.695 645.698 167.818 645.157C167.944 644.61 168.213 644.134 168.625 643.73C169.041 643.325 169.57 643.026 170.212 642.833C171.137 642.556 171.936 642.571 172.609 642.878C173.285 643.18 173.745 643.741 173.991 644.562C174.134 645.038 174.149 645.578 174.035 646.183C173.924 646.782 173.663 647.505 173.251 648.352L171.668 651.546L176.094 650.219L176.475 651.489Z" fill="#B7C0D8"/>
<path d="M197.275 673.487C197.074 674.099 196.812 674.751 196.484 675.44C195.327 677.87 193.677 680.079 192.554 681.312L192.366 681.519C191.611 682.348 191.351 683.547 191.685 684.661L193.93 692.146C194.444 693.861 196.183 694.854 197.814 694.365L226.614 685.73C228.245 685.241 229.151 683.455 228.637 681.74L226.392 674.255C226.058 673.141 225.182 672.283 224.096 672.006L223.824 671.937C222.209 671.525 219.615 670.588 217.312 669.195C216.66 668.8 216.082 668.4 215.578 668C216.776 667.283 217.371 665.768 216.932 664.304L215.417 659.251C215.115 658.242 214.365 657.436 213.406 657.09L211.873 656.535C212.153 654.84 212.06 653.04 211.528 651.263C209.741 645.303 203.695 641.85 198.024 643.55C192.353 645.25 189.205 651.46 190.992 657.42C191.554 659.297 192.54 660.925 193.803 662.222L193.086 663.182C192.476 663.999 192.293 665.085 192.596 666.093L194.111 671.147C194.549 672.61 195.88 673.548 197.275 673.487Z" fill="#34364C"/>
<path d="M208.574 652.149C209.242 654.378 208.941 656.657 207.919 658.493L212.463 660.137L213.978 665.19L210.339 666.281C211.217 668.571 213.35 670.486 215.814 671.976C218.428 673.558 221.315 674.599 223.167 675.071L223.439 675.141L225.683 682.626L196.883 691.261L194.639 683.775L194.828 683.568C196.115 682.155 197.952 679.696 199.266 676.938C200.503 674.338 201.23 671.565 200.703 669.17L197.064 670.261L195.549 665.208L198.241 661.602C196.259 660.659 194.645 658.866 193.945 656.535C192.673 652.289 194.915 647.866 198.955 646.655C202.994 645.443 207.301 647.903 208.574 652.149Z" fill="#F4F7FA"/>
</g>
<g clip-path="url(#clip2)">
<rect width="74.0087" height="77.7822" transform="translate(47.2983 267.5) rotate(-16.6895)" fill="#B7C0D8"/>
<path d="M62.1265 270.331L60.909 280.123L59.2392 280.624L60.568 271.226L55.6374 272.704L55.2546 271.427L61.8615 269.447L62.1265 270.331Z" fill="#E8EDF9"/>
<path d="M85.5854 300.959C85.3846 301.57 85.1219 302.223 84.7942 302.912C83.6374 305.342 81.9874 307.551 80.8647 308.783L80.6759 308.991C79.9212 309.82 79.6617 311.018 79.9957 312.132L82.2399 319.618C82.754 321.332 84.4931 322.326 86.1245 321.837L114.924 313.202C116.555 312.713 117.461 310.927 116.947 309.212L114.703 301.727C114.369 300.613 113.492 299.754 112.406 299.478L112.135 299.408C110.519 298.997 107.926 298.06 105.623 296.667C104.97 296.272 104.392 295.872 103.888 295.472C105.086 294.755 105.681 293.239 105.243 291.776L103.727 286.723C103.425 285.714 102.675 284.908 101.717 284.562L100.183 284.007C100.464 282.312 100.37 280.511 99.8379 278.735C98.051 272.775 92.0053 269.322 86.3345 271.022C80.6636 272.722 77.5151 278.932 79.302 284.892C79.8645 286.768 80.8507 288.397 82.1128 289.694L81.3958 290.654C80.7862 291.471 80.6034 292.556 80.9058 293.565L82.4209 298.618C82.8596 300.082 84.1906 301.02 85.5854 300.959Z" fill="#E8EDF9"/>
<path d="M96.8841 279.621C97.5525 281.85 97.2514 284.129 96.2297 285.965L100.774 287.608L102.289 292.662L98.6498 293.753C99.5275 296.043 101.66 297.958 104.124 299.448C106.738 301.029 109.626 302.071 111.477 302.543L111.749 302.612L113.993 310.098L85.1937 318.732L82.9494 311.247L83.1383 311.039C84.4248 309.627 86.2628 307.168 87.5759 304.409C88.8133 301.81 89.5404 299.037 89.0136 296.642L85.3747 297.733L83.8596 292.68L86.5515 289.073C84.569 288.131 82.9548 286.338 82.2557 284.006C80.9829 279.761 83.2257 275.337 87.2652 274.126C91.3047 272.915 95.6112 275.375 96.8841 279.621Z" fill="#34364C"/>
</g>
<rect width="74.0087" height="77.7822" transform="translate(91.9742 416.511) rotate(-16.6895)" fill="#B7C0D8"/>
<path d="M102.059 425.039L101.135 420.078L106.256 418.542L106.668 419.917L102.87 421.056L103.292 423.413C103.657 423.028 104.116 422.752 104.671 422.586C105.579 422.314 106.371 422.393 107.047 422.823C107.727 423.251 108.215 423.957 108.509 424.939C108.8 425.908 108.752 426.765 108.366 427.508C107.979 428.248 107.298 428.763 106.325 429.055C105.452 429.317 104.653 429.288 103.929 428.967C103.208 428.641 102.702 428.079 102.41 427.281L103.949 426.82C104.149 427.265 104.421 427.571 104.767 427.738C105.111 427.902 105.501 427.918 105.937 427.787C106.426 427.64 106.754 427.352 106.92 426.921C107.09 426.49 107.085 425.973 106.904 425.37C106.73 424.79 106.442 424.377 106.04 424.131C105.637 423.881 105.171 423.835 104.643 423.993C104.355 424.079 104.122 424.192 103.945 424.331C103.766 424.465 103.593 424.679 103.424 424.972L102.059 425.039Z" fill="#E8EDF9"/>
<rect width="74.0087" height="77.7822" transform="translate(136.65 565.523) rotate(-16.6895)" fill="#B7C0D8"/>
<path d="M147.919 572.86L148.889 572.569C149.376 572.419 149.725 572.176 149.934 571.842C150.147 571.507 150.183 571.104 150.042 570.632C149.906 570.178 149.68 569.863 149.366 569.686C149.054 569.503 148.654 569.486 148.165 569.632C147.737 569.76 147.423 569.99 147.223 570.321C147.021 570.648 146.98 571.01 147.099 571.408L145.507 571.885C145.361 571.396 145.356 570.912 145.493 570.433C145.635 569.953 145.904 569.532 146.3 569.171C146.699 568.804 147.186 568.534 147.762 568.361C148.714 568.076 149.533 568.092 150.218 568.41C150.906 568.722 151.378 569.304 151.633 570.155C151.761 570.583 151.745 571.028 151.584 571.49C151.426 571.947 151.159 572.336 150.785 572.658C151.362 572.679 151.844 572.842 152.23 573.145C152.62 573.447 152.895 573.864 153.055 574.396C153.311 575.252 153.221 576.021 152.783 576.704C152.35 577.386 151.655 577.87 150.699 578.157C149.783 578.432 148.959 578.412 148.227 578.099C147.495 577.785 147.008 577.223 146.765 576.411L148.356 575.934C148.481 576.353 148.723 576.651 149.081 576.829C149.443 577.006 149.862 577.023 150.338 576.881C150.831 576.733 151.181 576.485 151.386 576.138C151.591 575.791 151.619 575.369 151.47 574.871C151.319 574.369 151.055 574.028 150.677 573.846C150.299 573.664 149.818 573.661 149.233 573.837L148.296 574.117L147.919 572.86Z" fill="#E8EDF9"/>
<g clip-path="url(#clip3)">
<rect width="74.0087" height="77.7822" transform="translate(181.326 714.534) rotate(-16.6895)" fill="#B7C0D8"/>
<path d="M264.482 762.35L260.789 763.457L260.682 765.908L258.959 766.425L259.702 755.811L261.189 755.365L267.655 763.817L265.927 764.336L264.482 762.35ZM260.853 761.982L263.616 761.153L261.049 757.612L260.853 761.982Z" fill="#E8EDF9"/>
<path d="M196.711 726.625L195.126 727.1L192.831 719.445L190.733 720.945L190.331 719.603L193.64 717.119L193.843 717.058L196.711 726.625Z" fill="#E8EDF9"/>
<path d="M213.343 719.314C213.881 719.153 214.43 719.153 214.944 719.287C215.299 718.893 215.758 718.59 216.296 718.429L224.419 715.994C224.957 715.832 225.507 715.832 226.021 715.966C226.376 715.572 226.835 715.269 227.373 715.108L234.758 712.894C236.389 712.405 238.128 713.398 238.642 715.113L240.736 722.098C241.029 723.075 240.867 724.126 240.299 724.935L236.819 729.895L241.769 741.715C243.08 744.845 245.003 746.055 247.964 748.352C248.508 748.774 248.912 749.366 249.113 750.037L250.975 756.246C251.489 757.961 250.583 759.747 248.951 760.236L220.152 768.871C218.521 769.36 216.781 768.366 216.267 766.652L214.406 760.443C214.205 759.771 214.216 759.056 214.438 758.403C215.647 754.856 216.587 752.787 215.96 749.453L213.59 736.859L207.955 734.633C207.036 734.269 206.322 733.481 206.029 732.503L203.935 725.518C203.421 723.804 204.327 722.018 205.958 721.528L213.343 719.314Z" fill="#34364C"/>
<path d="M206.889 724.633L214.273 722.419L215.67 727.075L218.623 726.19L217.227 721.533L225.35 719.098L226.746 723.754L229.7 722.869L228.304 718.212L235.688 715.998L237.783 722.983L233.271 729.411L238.936 742.938L218.998 748.916L216.287 734.503L208.983 731.618L206.889 724.633Z" fill="#F4F7FA"/>
<path d="M219.929 752.02L239.867 746.042L246.159 750.923L248.021 757.132L219.221 765.766L217.36 759.557L219.929 752.02Z" fill="#F4F7FA"/>
</g>
<g clip-path="url(#clip4)">
<rect width="74.0088" height="77.7822" transform="translate(189.081 224.992) rotate(-16.6895)" fill="#B7C0D8"/>
<path d="M227.368 258.451C227.167 259.062 226.904 259.715 226.576 260.403C225.42 262.833 223.77 265.042 222.647 266.275L222.458 266.482C221.703 267.311 221.444 268.51 221.778 269.624L224.022 277.11C224.536 278.824 226.275 279.817 227.907 279.328L256.706 270.694C258.338 270.205 259.243 268.418 258.729 266.704L256.485 259.218C256.151 258.104 255.275 257.246 254.189 256.969L253.917 256.9C252.301 256.488 249.708 255.551 247.405 254.159C246.752 253.764 246.174 253.363 245.67 252.963C246.868 252.247 247.463 250.731 247.025 249.268L245.51 244.214C245.207 243.206 244.457 242.4 243.499 242.053L241.965 241.499C242.246 239.803 242.153 238.003 241.62 236.227C239.833 230.267 233.788 226.813 228.117 228.514C222.446 230.214 219.297 236.424 221.084 242.384C221.647 244.26 222.633 245.888 223.895 247.185L223.178 248.146C222.568 248.962 222.386 250.048 222.688 251.057L224.203 256.11C224.642 257.573 225.973 258.511 227.368 258.451Z" fill="#F4F7FA"/>
<path d="M238.666 237.112C239.335 239.342 239.034 241.62 238.012 243.457L242.556 245.1L244.071 250.153L240.432 251.244C241.31 253.534 243.443 255.45 245.906 256.94C248.52 258.521 251.408 259.563 253.259 260.035L253.531 260.104L255.775 267.589L226.976 276.224L224.732 268.738L224.921 268.531C226.207 267.118 228.045 264.66 229.358 261.901C230.596 259.301 231.323 256.528 230.796 254.133L227.157 255.224L225.642 250.171L228.334 246.565C226.351 245.623 224.737 243.83 224.038 241.498C222.765 237.252 225.008 232.829 229.047 231.618C233.087 230.407 237.393 232.867 238.666 237.112Z" fill="#34364C"/>
</g>
<rect width="74.0087" height="77.7822" transform="translate(233.756 374.003) rotate(-16.6895)" fill="#B7C0D8"/>
<rect width="74.0087" height="77.7822" transform="translate(278.432 523.014) rotate(-16.6895)" fill="#B7C0D8"/>
<g clip-path="url(#clip5)">
<rect width="74.0088" height="77.7822" transform="translate(323.108 672.025) rotate(-16.6895)" fill="#B7C0D8"/>
<path d="M408.022 718.35C408.231 719.396 408.094 720.303 407.611 721.072C407.126 721.835 406.34 722.38 405.253 722.706C404.494 722.934 403.77 722.956 403.082 722.772C402.397 722.582 401.798 722.203 401.285 721.634C400.772 721.064 400.377 720.343 400.101 719.469L399.834 718.579C399.564 717.68 399.486 716.84 399.599 716.059C399.712 715.278 400.01 714.613 400.493 714.064C400.979 713.513 401.613 713.121 402.395 712.887C403.447 712.571 404.38 712.603 405.193 712.983C406.006 713.362 406.621 714.058 407.039 715.07L405.389 715.565C405.105 714.903 404.756 714.47 404.343 714.265C403.932 714.055 403.417 714.043 402.797 714.229C402.077 714.445 401.602 714.875 401.372 715.52C401.145 716.159 401.179 716.988 401.475 718.008L401.729 718.853C402.037 719.883 402.456 720.614 402.985 721.045C403.519 721.475 404.141 721.584 404.853 721.37C405.503 721.175 405.948 720.883 406.188 720.492C406.428 720.101 406.489 719.552 406.372 718.845L408.022 718.35Z" fill="#E8EDF9"/>
<path d="M358.122 685.959C357.568 685.191 357.129 684.315 356.84 683.351C355.51 678.917 357.853 674.296 362.072 673.031C366.292 671.766 370.79 674.336 372.12 678.77C372.509 680.069 372.583 681.389 372.386 682.635C373.156 682.464 373.995 682.601 374.721 683.082C378.666 685.696 382.693 689.903 384.419 695.66C385.653 699.776 385.22 703.23 384.057 705.974L387.708 705.575C389.199 705.411 390.616 706.392 391.068 707.9L392.814 713.72C393.06 714.544 392.986 715.427 392.607 716.175C392.227 716.923 391.574 717.476 390.791 717.71L362.673 726.141C361.041 726.63 359.302 725.636 358.788 723.922L357.043 718.101C356.591 716.595 357.233 714.998 358.566 714.313L361.513 712.797C359.006 711.148 356.716 708.492 355.471 704.339C354.124 699.847 354.607 695.439 355.651 691.858C356.307 689.608 357.21 687.594 358.122 685.959Z" fill="#34364C"/>
<path d="M371.466 699.096L368.512 699.982C366.803 694.282 366.742 688.098 369.132 682.841C369.458 681.854 369.493 680.746 369.166 679.656C368.351 676.936 365.591 675.36 363.003 676.136C360.415 676.912 358.978 679.746 359.794 682.466C360.196 683.808 361.071 684.871 362.166 685.511C359.896 688.582 356.218 696.093 358.425 703.454C360.652 710.882 367.095 712.228 370.187 711.974L359.997 717.215L361.742 723.036L389.86 714.606L388.115 708.785L376.457 710.061C379.193 708.5 383.659 703.861 381.466 696.546C380.03 691.756 376.626 688.123 373.111 685.793C370.971 688.972 370.269 695.104 371.466 699.096Z" fill="#F4F7FA"/>
</g>
<g clip-path="url(#clip6)">
<rect width="74.0088" height="77.7822" transform="translate(330.863 182.483) rotate(-16.6895)" fill="#B7C0D8"/>
<path d="M369.15 215.942C368.949 216.554 368.686 217.206 368.359 217.895C367.202 220.325 365.552 222.534 364.429 223.767L364.24 223.974C363.486 224.803 363.226 226.002 363.56 227.116L365.804 234.601C366.318 236.316 368.058 237.309 369.689 236.82L398.488 228.185C400.12 227.696 401.026 225.91 400.512 224.195L398.267 216.71C397.933 215.596 397.057 214.737 395.971 214.461L395.699 214.391C394.083 213.98 391.49 213.043 389.187 211.65C388.535 211.255 387.956 210.855 387.452 210.455C388.65 209.738 389.246 208.223 388.807 206.759L387.292 201.706C386.989 200.697 386.24 199.891 385.281 199.545L383.748 198.99C384.028 197.295 383.935 195.495 383.402 193.718C381.615 187.758 375.57 184.305 369.899 186.005C364.228 187.705 361.08 193.915 362.866 199.875C363.429 201.751 364.415 203.38 365.677 204.677L364.96 205.637C364.351 206.454 364.168 207.54 364.47 208.548L365.985 213.602C366.424 215.065 367.755 216.003 369.15 215.942Z" fill="#F4F7FA"/>
<path d="M380.449 194.604C381.117 196.833 380.816 199.112 379.794 200.948L384.338 202.592L385.853 207.645L382.214 208.736C383.092 211.026 385.225 212.941 387.688 214.431C390.303 216.012 393.19 217.054 395.042 217.526L395.313 217.595L397.558 225.081L368.758 233.715L366.514 226.23L366.703 226.023C367.989 224.61 369.827 222.151 371.14 219.393C372.378 216.793 373.105 214.02 372.578 211.625L368.939 212.716L367.424 207.663L370.116 204.056C368.133 203.114 366.519 201.321 365.82 198.989C364.547 194.744 366.79 190.321 370.83 189.109C374.869 187.898 379.176 190.358 380.449 194.604Z" fill="#34364C"/>
</g>
<rect width="74.0087" height="77.7822" transform="translate(375.539 331.494) rotate(-16.6895)" fill="#B7C0D8"/>
<rect width="74.0087" height="77.7822" transform="translate(420.214 480.506) rotate(-16.6895)" fill="#B7C0D8"/>
<g clip-path="url(#clip7)">
<rect width="74.0087" height="77.7822" transform="translate(464.89 629.517) rotate(-16.6895)" fill="#B7C0D8"/>
<path d="M548.346 675.023L544.43 676.197L545.31 679.131L549.887 677.759L550.283 679.081L544.05 680.95L541.191 671.416L547.379 669.561L547.78 670.897L543.248 672.255L544.038 674.888L547.953 673.714L548.346 675.023Z" fill="#E8EDF9"/>
<g clip-path="url(#clip8)">
<path fill-rule="evenodd" clip-rule="evenodd" d="M499.601 632.538C499.148 630.848 500.056 629.124 501.651 628.646L506.082 627.317C507.677 626.839 509.384 627.779 509.936 629.44L510.224 630.305L511.676 629.87C513.307 629.38 515.047 630.374 515.561 632.088L516.125 633.971C519.115 632.24 522.744 631.71 526.468 633.409C534.205 636.938 537.014 648.358 531.587 656.692C530.277 658.703 529.267 660.347 528.698 661.9C528.568 662.255 528.467 662.59 528.393 662.911L531.514 662.439C533.041 662.208 534.528 663.195 534.994 664.749L536.739 670.569C537.253 672.284 536.347 674.07 534.716 674.559L503.732 683.849C502.1 684.338 500.361 683.345 499.847 681.63L498.102 675.81C497.636 674.256 498.335 672.614 499.737 671.966L502.603 670.643C502.365 670.416 502.096 670.192 501.792 669.967C500.462 668.983 498.715 668.166 496.514 667.207C487.397 663.234 483.46 652.152 487.979 644.948C490.154 641.481 493.476 639.927 496.925 639.728L496.361 637.845C495.847 636.13 496.753 634.344 498.384 633.855L499.836 633.419L499.601 632.538Z" fill="#34364C"/>
<path fill-rule="evenodd" clip-rule="evenodd" d="M502.582 631.75L507.013 630.422L508.292 634.268L512.607 632.974L514.003 637.631L509.826 638.883L511.61 644.094C511.661 643.97 511.714 643.846 511.772 643.724C514.455 638.009 519.717 633.817 525.292 636.361C530.886 638.913 533.562 647.838 529.009 654.829C526.43 658.789 524.18 662.536 525.569 666.613L532.04 665.634L533.785 671.455L502.801 680.745L501.056 674.924L506.998 672.181C505.915 668.012 501.974 666.121 497.642 664.233C489.994 660.9 487.318 651.975 490.585 646.766C493.841 641.575 500.542 642.18 505.927 645.477C506.042 645.547 506.154 645.62 506.265 645.696L504.888 640.363L500.711 641.616L499.315 636.959L503.63 635.665L502.582 631.75ZM503.754 650.831C507.859 654.681 509.851 660.022 510.561 662.392C509.205 662.801 503.38 661.969 499.507 658.898C496.718 656.687 494.966 652.691 496.155 650.58C497.344 648.468 501.188 648.425 503.754 650.831ZM516.532 647C515.222 652.473 516.497 658.029 517.208 660.399C518.565 659.995 522.972 656.095 524.517 651.4C525.629 648.019 524.894 643.718 522.739 642.609C520.585 641.5 517.351 643.579 516.532 647Z" fill="#F4F7FA"/>
</g>
</g>
<g clip-path="url(#clip9)">
<rect width="74.0088" height="77.7822" transform="translate(472.645 139.975) rotate(-16.6895)" fill="#B7C0D8"/>
<path d="M510.932 173.434C510.731 174.045 510.469 174.698 510.141 175.386C508.984 177.816 507.334 180.025 506.211 181.258L506.023 181.465C505.268 182.294 505.008 183.493 505.342 184.607L507.587 192.093C508.101 193.807 509.84 194.8 511.471 194.311L540.271 185.677C541.902 185.188 542.808 183.401 542.294 181.687L540.049 174.201C539.715 173.087 538.839 172.229 537.753 171.952L537.481 171.883C535.865 171.471 533.272 170.534 530.969 169.142C530.317 168.747 529.739 168.346 529.235 167.946C530.433 167.23 531.028 165.714 530.589 164.251L529.074 159.197C528.772 158.189 528.022 157.383 527.063 157.036L525.53 156.482C525.81 154.786 525.717 152.986 525.185 151.21C523.398 145.25 517.352 141.796 511.681 143.497C506.01 145.197 502.862 151.407 504.649 157.367C505.211 159.243 506.197 160.871 507.459 162.168L506.743 163.129C506.133 163.945 505.95 165.031 506.253 166.04L507.768 171.093C508.206 172.556 509.537 173.494 510.932 173.434Z" fill="#F4F7FA"/>
<path d="M522.231 152.095C522.899 154.325 522.598 156.603 521.576 158.44L526.12 160.083L527.635 165.136L523.996 166.227C524.874 168.517 527.007 170.433 529.471 171.923C532.085 173.504 534.972 174.546 536.824 175.018L537.096 175.087L539.34 182.572L510.54 191.207L508.296 183.721L508.485 183.514C509.772 182.101 511.609 179.643 512.923 176.884C514.16 174.284 514.887 171.511 514.36 169.116L510.721 170.207L509.206 165.154L511.898 161.548C509.916 160.606 508.302 158.813 507.602 156.481C506.33 152.236 508.572 147.812 512.612 146.601C516.651 145.39 520.958 147.85 522.231 152.095Z" fill="#34364C"/>
</g>
<rect width="74.0087" height="77.7822" transform="translate(517.321 288.986) rotate(-16.6895)" fill="#B7C0D8"/>
<rect width="74.0087" height="77.7822" transform="translate(561.997 437.997) rotate(-16.6895)" fill="#B7C0D8"/>
<g clip-path="url(#clip10)">
<rect width="74.0088" height="77.7822" transform="translate(606.673 587.008) rotate(-16.6895)" fill="#B7C0D8"/>
<path d="M691.996 635.245C691.786 635.798 691.41 636.282 690.868 636.696C690.326 637.111 689.667 637.435 688.89 637.668C688.091 637.907 687.329 637.938 686.605 637.76C685.881 637.582 685.25 637.208 684.712 636.636C684.178 636.059 683.769 635.323 683.486 634.428L683.263 633.681C682.831 632.241 682.839 631.013 683.286 629.999C683.732 628.98 684.573 628.285 685.809 627.915C686.869 627.597 687.791 627.606 688.572 627.943C689.353 628.28 689.955 628.922 690.377 629.871L688.753 630.358C688.226 629.265 687.388 628.89 686.24 629.234C685.498 629.457 685.013 629.895 684.786 630.548C684.561 631.196 684.597 632.039 684.894 633.078L685.114 633.811C685.423 634.841 685.879 635.578 686.483 636.02C687.09 636.456 687.779 636.559 688.552 636.327C689.399 636.073 689.944 635.701 690.187 635.209L689.627 633.343L687.663 633.932L687.286 632.675L690.9 631.591L691.996 635.245Z" fill="#E8EDF9"/>
<path d="M640.369 587.485C641.306 587.079 642.389 587.188 643.26 587.778L651.501 593.359C658.961 593.081 664.613 597.356 668.881 603.528C673.278 609.888 676.525 618.663 679.275 627.835C679.789 629.55 678.883 631.336 677.252 631.825L649.711 640.082C648.143 640.552 646.462 639.653 645.883 638.033C645.365 636.587 644.923 633.943 645.122 631.047L645.126 630.994C642.814 633.397 639.614 633.947 636.808 632.919C633.398 631.67 630.626 628.054 631.187 623.494C631.592 620.206 632.506 618.255 633.198 616.78C633.844 615.402 634.105 614.802 634.031 613.512C633.578 605.689 635.891 600.411 639.153 597.34C638.848 596.525 638.653 595.71 638.532 594.953C638.23 593.07 638.33 591.215 638.576 589.808C638.76 588.761 639.431 587.891 640.369 587.485Z" fill="#34364C"/>
<path fill-rule="evenodd" clip-rule="evenodd" d="M650.746 596.648L641.624 590.471C641.236 592.687 641.319 596.369 643.401 598.42C642.766 598.677 642.176 598.98 641.755 599.329C639.063 601.552 636.689 605.922 637.122 613.406C637.247 615.572 636.672 616.8 635.988 618.26C635.343 619.637 634.601 621.22 634.26 623.991C633.557 629.7 641.048 632.952 644.034 627.063C645.712 623.752 647.536 622.047 649.067 620.615C651.271 618.553 652.868 617.059 652.555 612.162C653.7 614.147 655.01 619.248 651.09 623.776C647.17 628.304 648.104 635.085 648.781 636.978L676.321 628.721C670.849 610.469 663.822 595.389 650.746 596.648Z" fill="#F4F7FA"/>
<ellipse cx="645.285" cy="608.42" rx="2.31277" ry="2.43069" transform="rotate(-16.6895 645.285 608.42)" fill="#34364C"/>
</g>
<g clip-path="url(#clip11)">
<rect width="74.0087" height="77.7822" transform="translate(308.525 107.977) rotate(-16.6895)" fill="#E8EDF9"/>
<g clip-path="url(#clip12)">
<path fill-rule="evenodd" clip-rule="evenodd" d="M343.235 110.999C342.782 109.308 343.69 107.585 345.286 107.106L349.716 105.778C351.312 105.3 353.018 106.239 353.57 107.9L353.858 108.766L355.311 108.33C356.942 107.841 358.681 108.834 359.195 110.549L359.76 112.432C362.75 110.701 366.378 110.17 370.103 111.869C377.839 115.399 380.649 126.818 375.221 135.152C373.911 137.163 372.902 138.808 372.333 140.361C372.203 140.715 372.101 141.051 372.027 141.372L375.148 140.9C376.676 140.669 378.163 141.656 378.629 143.209L380.374 149.03C380.888 150.745 379.982 152.531 378.351 153.02L347.366 162.31C345.735 162.799 343.996 161.805 343.482 160.091L341.736 154.27C341.271 152.716 341.969 151.074 343.372 150.427L346.238 149.104C346 148.876 345.73 148.652 345.427 148.428C344.097 147.444 342.349 146.626 340.149 145.667C331.032 141.694 327.095 130.613 331.614 123.409C333.789 119.941 337.111 118.388 340.56 118.188L339.995 116.305C339.481 114.591 340.387 112.804 342.018 112.315L343.471 111.88L343.235 110.999Z" fill="#F4F7FA"/>
<path fill-rule="evenodd" clip-rule="evenodd" d="M346.217 110.211L350.647 108.882L351.926 112.728L356.241 111.434L357.637 116.091L353.461 117.343L355.244 122.555C355.295 122.43 355.349 122.307 355.406 122.185C358.089 116.469 363.352 112.278 368.927 114.821C374.521 117.373 377.197 126.298 372.644 133.289C370.065 137.249 367.815 140.996 369.203 145.074L375.675 144.095L377.42 149.916L346.435 159.205L344.69 153.384L350.633 150.641C349.549 146.473 345.609 144.582 341.276 142.694C333.628 139.361 330.952 130.436 334.22 125.227C337.476 120.036 344.176 120.641 349.561 123.937C349.676 124.008 349.789 124.081 349.9 124.157L348.522 118.824L344.345 120.076L342.949 115.42L347.265 114.126L346.217 110.211ZM347.388 129.292C351.494 133.141 353.486 138.482 354.196 140.852C352.84 141.262 347.014 140.43 343.141 137.359C340.353 135.147 338.601 131.152 339.789 129.04C340.978 126.929 344.823 126.886 347.388 129.292ZM360.166 125.46C358.856 130.934 360.132 136.49 360.842 138.859C362.2 138.455 366.607 134.556 368.151 129.86C369.263 126.48 368.528 122.179 366.374 121.07C364.219 119.961 360.985 122.04 360.166 125.46Z" fill="#34364C"/>
</g>
</g>
<rect width="74.0087" height="77.7822" transform="translate(353.201 256.989) rotate(-16.6895)" fill="#E8EDF9"/>
<rect width="74.0088" height="77.7823" transform="translate(397.877 406) rotate(-16.6895)" fill="#E8EDF9"/>
<g clip-path="url(#clip13)">
<rect width="74.0087" height="77.7822" transform="translate(442.552 555.011) rotate(-16.6895)" fill="#E8EDF9"/>
<path d="M480.84 588.47C480.639 589.082 480.376 589.734 480.048 590.423C478.892 592.853 477.242 595.062 476.119 596.295L475.93 596.502C475.175 597.331 474.916 598.53 475.25 599.644L477.494 607.129C478.008 608.844 479.747 609.837 481.379 609.348L510.178 600.713C511.809 600.224 512.715 598.438 512.201 596.723L509.957 589.238C509.623 588.124 508.747 587.266 507.661 586.989L507.389 586.92C505.773 586.508 503.18 585.571 500.877 584.178C500.224 583.783 499.646 583.383 499.142 582.983C500.34 582.266 500.935 580.751 500.497 579.287L498.982 574.234C498.679 573.225 497.929 572.419 496.971 572.073L495.437 571.518C495.718 569.823 495.625 568.023 495.092 566.246C493.305 560.286 487.259 556.833 481.589 558.533C475.918 560.233 472.769 566.443 474.556 572.403C475.119 574.28 476.105 575.908 477.367 577.205L476.65 578.165C476.04 578.982 475.858 580.068 476.16 581.076L477.675 586.13C478.114 587.593 479.445 588.531 480.84 588.47Z" fill="#34364C"/>
<path d="M492.138 567.132C492.807 569.361 492.506 571.64 491.484 573.476L496.028 575.12L497.543 580.173L493.904 581.264C494.782 583.554 496.915 585.469 499.378 586.959C501.992 588.541 504.88 589.582 506.731 590.054L507.003 590.124L509.247 597.609L480.448 606.244L478.204 598.758L478.392 598.551C479.679 597.138 481.517 594.679 482.83 591.921C484.067 589.321 484.795 586.548 484.268 584.153L480.629 585.244L479.114 580.191L481.806 576.585C479.823 575.642 478.209 573.849 477.51 571.518C476.237 567.272 478.48 562.849 482.519 561.638C486.559 560.427 490.865 562.886 492.138 567.132Z" fill="#F4F7FA"/>
</g>
<g clip-path="url(#clip14)">
<rect width="74.0087" height="77.7822" transform="translate(166.743 150.486) rotate(-16.6895)" fill="#E8EDF9"/>
<path d="M201.756 164.42C201.203 163.652 200.763 162.776 200.474 161.812C199.145 157.377 201.487 152.757 205.707 151.492C209.926 150.227 214.425 152.796 215.754 157.231C216.144 158.53 216.218 159.85 216.02 161.096C216.79 160.925 217.63 161.062 218.356 161.543C222.3 164.157 226.328 168.363 228.054 174.121C229.288 178.237 228.854 181.691 227.691 184.435L231.343 184.035C232.834 183.872 234.251 184.853 234.703 186.36L236.448 192.181C236.695 193.004 236.62 193.887 236.241 194.636C235.862 195.384 235.208 195.936 234.425 196.171L206.307 204.601C204.676 205.09 202.937 204.097 202.423 202.382L200.677 196.562C200.226 195.056 200.868 193.459 202.2 192.773L205.148 191.257C202.641 189.609 200.35 186.953 199.105 182.8C197.758 178.308 198.242 173.899 199.286 170.319C199.942 168.069 200.844 166.054 201.756 164.42Z" fill="#F4F7FA"/>
<path d="M215.1 177.557L212.147 178.443C210.437 172.742 210.376 166.558 212.767 161.302C213.093 160.315 213.127 159.206 212.801 158.116C211.985 155.396 209.226 153.82 206.638 154.596C204.049 155.372 202.612 158.206 203.428 160.927C203.83 162.269 204.706 163.332 205.801 163.972C203.531 167.043 199.852 174.554 202.059 181.914C204.286 189.342 210.729 190.688 213.821 190.434L203.631 195.676L205.377 201.497L233.494 193.067L231.749 187.246L220.091 188.522C222.827 186.96 227.293 182.321 225.1 175.006C223.664 170.216 220.261 166.583 216.746 164.254C214.605 167.433 213.903 173.564 215.1 177.557Z" fill="#34364C"/>
</g>
<rect width="74.0087" height="77.7822" transform="translate(211.419 299.497) rotate(-16.6895)" fill="#E8EDF9"/>
<rect width="74.0087" height="77.7823" transform="translate(256.094 448.508) rotate(-16.6895)" fill="#E8EDF9"/>
<g clip-path="url(#clip15)">
<rect width="74.0087" height="77.7822" transform="translate(300.77 597.52) rotate(-16.6895)" fill="#E8EDF9"/>
<path d="M339.057 630.979C338.856 631.59 338.594 632.243 338.266 632.931C337.109 635.362 335.459 637.57 334.337 638.803L334.148 639.011C333.393 639.839 333.134 641.038 333.468 642.152L335.712 649.638C336.226 651.352 337.965 652.346 339.596 651.856L368.396 643.222C370.027 642.733 370.933 640.946 370.419 639.232L368.175 631.746C367.841 630.632 366.964 629.774 365.878 629.497L365.606 629.428C363.991 629.016 361.398 628.08 359.095 626.687C358.442 626.292 357.864 625.892 357.36 625.492C358.558 624.775 359.153 623.259 358.714 621.796L357.199 616.743C356.897 615.734 356.147 614.928 355.189 614.581L353.655 614.027C353.936 612.331 353.842 610.531 353.31 608.755C351.523 602.795 345.477 599.341 339.806 601.042C334.136 602.742 330.987 608.952 332.774 614.912C333.336 616.788 334.323 618.417 335.585 619.713L334.868 620.674C334.258 621.491 334.075 622.576 334.378 623.585L335.893 628.638C336.332 630.101 337.663 631.039 339.057 630.979Z" fill="#34364C"/>
<path d="M350.356 609.64C351.024 611.87 350.723 614.148 349.702 615.985L354.246 617.628L355.761 622.682L352.122 623.773C352.999 626.062 355.132 627.978 357.596 629.468C360.21 631.049 363.098 632.091 364.949 632.563L365.221 632.632L367.465 640.118L338.666 648.752L336.421 641.267L336.61 641.059C337.897 639.646 339.735 637.188 341.048 634.429C342.285 631.83 343.012 629.057 342.486 626.662L338.847 627.753L337.332 622.699L340.023 619.093C338.041 618.151 336.427 616.358 335.728 614.026C334.455 609.781 336.698 605.357 340.737 604.146C344.777 602.935 349.083 605.395 350.356 609.64Z" fill="#F4F7FA"/>
</g>
<g clip-path="url(#clip16)">
<rect width="74.0087" height="77.7822" transform="translate(450.307 65.469) rotate(-16.6895)" fill="#E8EDF9"/>
<path d="M484.003 65.9456C484.941 65.5392 486.024 65.649 486.895 66.2387L495.136 71.8192C502.595 71.5417 508.247 75.8164 512.515 81.9888C516.913 88.3489 520.16 97.1236 522.909 106.296C523.424 108.01 522.518 109.796 520.886 110.286L493.346 118.543C491.778 119.013 490.097 118.113 489.517 116.493C489 115.048 488.557 112.404 488.757 109.507L488.76 109.454C486.449 111.858 483.249 112.407 480.443 111.379C477.033 110.13 474.261 106.515 474.822 101.955C475.227 98.6668 476.141 96.7159 476.832 95.2404C477.478 93.8621 477.74 93.2626 477.665 91.9723C477.213 84.1492 479.525 78.8712 482.787 75.8009C482.482 74.9856 482.287 74.1706 482.166 73.4138C481.865 71.5301 481.964 69.6759 482.211 68.2684C482.394 67.2219 483.065 66.352 484.003 65.9456Z" fill="#F4F7FA"/>
<path fill-rule="evenodd" clip-rule="evenodd" d="M494.381 75.109L485.258 68.9316C484.87 71.1479 484.953 74.8291 487.035 76.8804C486.4 77.1374 485.811 77.4408 485.389 77.7892C482.698 80.0123 480.324 84.3831 480.756 91.8661C480.882 94.0329 480.306 95.2611 479.622 96.7208C478.977 98.0977 478.235 99.6806 477.894 102.452C477.191 108.161 484.682 111.413 487.668 105.524C489.347 102.213 491.17 100.507 492.701 99.0751C494.905 97.0139 496.503 95.5196 496.19 90.6224C497.335 92.6072 498.644 97.7088 494.724 102.237C490.804 106.764 491.738 113.546 492.415 115.438L519.956 107.181C514.484 88.9298 507.457 73.85 494.381 75.109Z" fill="#34364C"/>
<ellipse cx="488.92" cy="86.881" rx="2.31277" ry="2.43069" transform="rotate(-16.6895 488.92 86.881)" fill="#F4F7FA"/>
</g>
<rect width="74.0087" height="77.7822" transform="translate(494.983 214.48) rotate(-16.6895)" fill="#E8EDF9"/>
<rect width="74.0088" height="77.7823" transform="translate(539.659 363.492) rotate(-16.6895)" fill="#E8EDF9"/>
<g clip-path="url(#clip17)">
<rect width="74.0087" height="77.7822" transform="translate(584.335 512.503) rotate(-16.6895)" fill="#E8EDF9"/>
<path d="M622.622 545.962C622.421 546.573 622.158 547.226 621.83 547.915C620.674 550.345 619.024 552.553 617.901 553.786L617.712 553.994C616.958 554.822 616.698 556.021 617.032 557.135L619.276 564.621C619.79 566.335 621.529 567.329 623.161 566.84L651.96 558.205C653.592 557.716 654.497 555.93 653.983 554.215L651.739 546.73C651.405 545.616 650.529 544.757 649.443 544.48L649.171 544.411C647.555 543.999 644.962 543.063 642.659 541.67C642.006 541.275 641.428 540.875 640.924 540.475C642.122 539.758 642.717 538.242 642.279 536.779L640.764 531.726C640.461 530.717 639.711 529.911 638.753 529.564L637.219 529.01C637.5 527.315 637.407 525.514 636.874 523.738C635.087 517.778 629.042 514.325 623.371 516.025C617.7 517.725 614.551 523.935 616.338 529.895C616.901 531.771 617.887 533.4 619.149 534.696L618.432 535.657C617.822 536.474 617.64 537.559 617.942 538.568L619.457 543.621C619.896 545.084 621.227 546.022 622.622 545.962Z" fill="#34364C"/>
<path d="M633.92 524.623C634.589 526.853 634.288 529.131 633.266 530.968L637.81 532.611L639.325 537.665L635.686 538.756C636.564 541.045 638.697 542.961 641.16 544.451C643.775 546.032 646.662 547.074 648.514 547.546L648.785 547.615L651.03 555.101L622.23 563.735L619.986 556.25L620.175 556.042C621.461 554.63 623.299 552.171 624.612 549.412C625.85 546.813 626.577 544.04 626.05 541.645L622.411 542.736L620.896 537.682L623.588 534.076C621.605 533.134 619.991 531.341 619.292 529.009C618.019 524.764 620.262 520.34 624.302 519.129C628.341 517.918 632.648 520.378 633.92 524.623Z" fill="#F4F7FA"/>
</g>
<g clip-path="url(#clip18)">
<rect width="74.0087" height="77.7822" transform="translate(95.8516 171.74) rotate(-16.6895)" fill="#B7C0D8"/>
<path d="M129.547 172.217C130.485 171.81 131.568 171.92 132.439 172.51L140.68 178.09C148.14 177.813 153.792 182.088 158.06 188.26C162.457 194.62 165.704 203.395 168.454 212.567C168.968 214.281 168.062 216.068 166.431 216.557L138.89 224.814C137.322 225.284 135.641 224.384 135.062 222.765C134.544 221.319 134.102 218.675 134.301 215.778L134.305 215.725C131.993 218.129 128.793 218.679 125.987 217.651C122.577 216.402 119.805 212.786 120.366 208.226C120.771 204.938 121.685 202.987 122.377 201.512C123.023 200.133 123.284 199.534 123.21 198.244C122.757 190.42 125.07 185.142 128.332 182.072C128.027 181.257 127.832 180.442 127.71 179.685C127.409 177.801 127.509 175.947 127.755 174.54C127.939 173.493 128.61 172.623 129.547 172.217Z" fill="#F4F7FA"/>
<path fill-rule="evenodd" clip-rule="evenodd" d="M139.925 181.38L130.803 175.203C130.415 177.419 130.498 181.1 132.58 183.152C131.945 183.409 131.355 183.712 130.934 184.06C128.242 186.284 125.868 190.654 126.301 198.137C126.426 200.304 125.851 201.532 125.167 202.992C124.521 204.369 123.78 205.952 123.439 208.723C122.736 214.432 130.227 217.684 133.213 211.795C134.891 208.484 136.715 206.778 138.246 205.346C140.45 203.285 142.047 201.791 141.734 196.894C142.879 198.878 144.189 203.98 140.269 208.508C136.349 213.035 137.282 219.817 137.96 221.709L165.5 213.452C160.028 195.201 153.001 180.121 139.925 181.38Z" fill="#34364C"/>
<ellipse cx="134.464" cy="193.152" rx="2.31277" ry="2.43069" transform="rotate(-16.6895 134.464 193.152)" fill="#F4F7FA"/>
</g>
<rect width="74.0087" height="77.7822" transform="translate(140.527 320.751) rotate(-16.6895)" fill="#B7C0D8"/>
<rect width="74.0087" height="77.7822" transform="translate(185.203 469.763) rotate(-16.6895)" fill="#B7C0D8"/>
<g clip-path="url(#clip19)">
<rect width="74.0088" height="77.7822" transform="translate(229.879 618.774) rotate(-16.6895)" fill="#B7C0D8"/>
<path d="M268.166 652.233C267.965 652.844 267.703 653.497 267.375 654.186C266.218 656.616 264.568 658.825 263.446 660.057L263.257 660.265C262.502 661.094 262.242 662.292 262.576 663.406L264.821 670.892C265.335 672.606 267.074 673.6 268.705 673.111L297.505 664.476C299.136 663.987 300.042 662.201 299.528 660.486L297.284 653.001C296.95 651.887 296.073 651.028 294.987 650.752L294.715 650.682C293.1 650.271 290.507 649.334 288.204 647.941C287.551 647.546 286.973 647.146 286.469 646.746C287.667 646.029 288.262 644.513 287.823 643.05L286.308 637.997C286.006 636.988 285.256 636.182 284.297 635.836L282.764 635.281C283.045 633.586 282.951 631.785 282.419 630.009C280.632 624.049 274.586 620.596 268.915 622.296C263.244 623.996 260.096 630.206 261.883 636.166C262.445 638.042 263.432 639.671 264.694 640.968L263.977 641.928C263.367 642.745 263.184 643.83 263.487 644.839L265.002 649.892C265.44 651.356 266.771 652.294 268.166 652.233Z" fill="#34364C"/>
<path d="M279.465 630.895C280.133 633.124 279.832 635.403 278.811 637.239L283.354 638.882L284.87 643.936L281.231 645.027C282.108 647.317 284.241 649.232 286.705 650.722C289.319 652.303 292.206 653.345 294.058 653.817L294.33 653.886L296.574 661.372L267.775 670.006L265.53 662.521L265.719 662.313C267.006 660.901 268.844 658.442 270.157 655.683C271.394 653.084 272.121 650.311 271.594 647.916L267.956 649.007L266.44 643.954L269.132 640.347C267.15 639.405 265.536 637.612 264.837 635.28C263.564 631.035 265.806 626.611 269.846 625.4C273.886 624.189 278.192 626.649 279.465 630.895Z" fill="#F4F7FA"/>
</g>
<g clip-path="url(#clip20)">
<rect width="74.0087" height="77.7822" transform="translate(118.189 246.246) rotate(-16.6895)" fill="#E8EDF9"/>
<path d="M156.476 279.705C156.276 280.316 156.013 280.969 155.685 281.657C154.529 284.088 152.879 286.296 151.756 287.529L151.567 287.737C150.812 288.565 150.553 289.764 150.887 290.878L153.131 298.364C153.645 300.078 155.384 301.072 157.016 300.583L185.815 291.948C187.446 291.459 188.352 289.673 187.838 287.958L185.594 280.473C185.26 279.359 184.384 278.5 183.297 278.223L183.026 278.154C181.41 277.742 178.817 276.806 176.514 275.413C175.861 275.018 175.283 274.618 174.779 274.218C175.977 273.501 176.572 271.985 176.134 270.522L174.619 265.469C174.316 264.46 173.566 263.654 172.608 263.307L171.074 262.753C171.355 261.058 171.262 259.257 170.729 257.481C168.942 251.521 162.896 248.068 157.226 249.768C151.555 251.468 148.406 257.678 150.193 263.638C150.756 265.514 151.742 267.143 153.004 268.439L152.287 269.4C151.677 270.217 151.495 271.302 151.797 272.311L153.312 277.364C153.751 278.827 155.082 279.765 156.476 279.705Z" fill="#F4F7FA"/>
<path d="M167.775 258.366C168.444 260.596 168.142 262.874 167.121 264.711L171.665 266.354L173.18 271.408L169.541 272.499C170.419 274.788 172.551 276.704 175.015 278.194C177.629 279.775 180.517 280.817 182.368 281.289L182.64 281.358L184.884 288.844L156.085 297.478L153.841 289.993L154.029 289.785C155.316 288.373 157.154 285.914 158.467 283.155C159.704 280.556 160.432 277.783 159.905 275.388L156.266 276.479L154.751 271.425L157.443 267.819C155.46 266.877 153.846 265.084 153.147 262.752C151.874 258.507 154.117 254.083 158.156 252.872C162.196 251.661 166.502 254.121 167.775 258.366Z" fill="#34364C"/>
</g>
<rect width="74.0087" height="77.7822" transform="translate(162.865 395.257) rotate(-16.6895)" fill="#E8EDF9"/>
<rect width="74.0087" height="77.7822" transform="translate(207.541 544.268) rotate(-16.6895)" fill="#E8EDF9"/>
<g clip-path="url(#clip21)">
<rect width="74.0087" height="77.7822" transform="translate(252.217 693.28) rotate(-16.6895)" fill="#E8EDF9"/>
<path d="M330.938 744.845L328.079 735.311L331.347 734.331C332.425 734.008 333.31 733.978 334.003 734.241C334.696 734.504 335.17 735.064 335.427 735.92C335.558 736.356 335.558 736.784 335.427 737.204C335.296 737.624 335.032 737.998 334.635 738.326C335.192 738.312 335.669 738.457 336.065 738.761C336.464 739.06 336.744 739.481 336.907 740.022C337.175 740.917 337.093 741.691 336.661 742.344C336.233 742.995 335.484 743.481 334.415 743.802L330.938 744.845ZM331.304 740.046L332.198 743.025L334.038 742.474C334.557 742.318 334.924 742.067 335.14 741.722C335.355 741.377 335.394 740.975 335.256 740.517C334.959 739.526 334.301 739.171 333.282 739.453L331.304 740.046ZM330.939 738.828L332.563 738.341C333.078 738.187 333.445 737.951 333.664 737.633C333.886 737.309 333.932 736.934 333.804 736.506C333.663 736.035 333.425 735.735 333.092 735.606C332.763 735.476 332.315 735.497 331.747 735.667L330.136 736.15L330.939 738.828Z" fill="#B7C0D8"/>
<path d="M285.913 693.756C286.851 693.35 287.934 693.46 288.805 694.049L297.046 699.63C304.505 699.352 310.157 703.627 314.425 709.799C318.823 716.16 322.07 724.934 324.819 734.106C325.333 735.821 324.428 737.607 322.796 738.096L295.256 746.353C293.688 746.823 292.007 745.924 291.427 744.304C290.91 742.859 290.467 740.214 290.667 737.318L290.67 737.265C288.359 739.668 285.159 740.218 282.353 739.19C278.942 737.941 276.171 734.325 276.732 729.766C277.137 726.478 278.051 724.527 278.742 723.051C279.388 721.673 279.65 721.073 279.575 719.783C279.123 711.96 281.435 706.682 284.697 703.612C284.392 702.796 284.197 701.981 284.076 701.224C283.775 699.341 283.874 697.487 284.121 696.079C284.304 695.033 284.975 694.163 285.913 693.756Z" fill="#34364C"/>
<path fill-rule="evenodd" clip-rule="evenodd" d="M296.291 702.92L287.168 696.742C286.78 698.959 286.863 702.64 288.945 704.691C288.31 704.948 287.721 705.251 287.299 705.6C284.608 707.823 282.234 712.194 282.666 719.677C282.792 721.844 282.216 723.072 281.532 724.531C280.887 725.908 280.145 727.491 279.804 730.262C279.101 735.971 286.592 739.223 289.578 733.334C291.257 730.024 293.08 728.318 294.611 726.886C296.815 724.825 298.413 723.33 298.1 718.433C299.245 720.418 300.554 725.519 296.634 730.047C292.714 734.575 293.648 741.357 294.325 743.249L321.866 734.992C316.394 716.74 309.367 701.661 296.291 702.92Z" fill="#F4F7FA"/>
<ellipse cx="290.83" cy="714.692" rx="2.31277" ry="2.43069" transform="rotate(-16.6895 290.83 714.692)" fill="#34364C"/>
</g>
<g clip-path="url(#clip22)">
<rect width="74.0087" height="77.7822" transform="translate(259.972 203.737) rotate(-16.6895)" fill="#E8EDF9"/>
<rect opacity="0.5" x="260.594" y="204.073" width="73.0087" height="76.7822" transform="rotate(-16.6895 260.594 204.073)" fill="#7B61FF" stroke="#B2A7FC"/>
</g>
<g clip-path="url(#clip23)">
<rect width="74.0087" height="77.7822" transform="translate(304.648 352.749) rotate(-16.6895)" fill="#E8EDF9"/>
<rect opacity="0.5" x="304.648" y="352.749" width="74.0087" height="77.7822" transform="rotate(-16.6895 304.648 352.749)" fill="#7B61FF"/>
<path d="M342.935 386.208C342.734 386.819 342.471 387.472 342.143 388.16C340.987 390.59 339.337 392.799 338.214 394.032L338.025 394.239C337.27 395.068 337.011 396.267 337.345 397.381L339.589 404.867C340.103 406.581 341.842 407.574 343.474 407.085L372.273 398.451C373.905 397.962 374.81 396.175 374.296 394.461L372.052 386.975C371.718 385.861 370.842 385.003 369.756 384.726L369.484 384.657C367.868 384.245 365.275 383.308 362.972 381.916C362.319 381.521 361.741 381.12 361.237 380.72C362.435 380.004 363.03 378.488 362.592 377.025L361.077 371.971C360.774 370.963 360.024 370.157 359.066 369.81L357.532 369.256C357.813 367.56 357.72 365.76 357.187 363.984C355.4 358.024 349.355 354.57 343.684 356.271C338.013 357.971 334.864 364.181 336.651 370.141C337.214 372.017 338.2 373.645 339.462 374.942L338.745 375.903C338.135 376.719 337.953 377.805 338.255 378.814L339.77 383.867C340.209 385.33 341.54 386.268 342.935 386.208Z" fill="#F4F7FA"/>
<path d="M354.233 364.869C354.902 367.099 354.601 369.377 353.579 371.214L358.123 372.857L359.638 377.91L355.999 379.001C356.877 381.291 359.01 383.207 361.473 384.697C364.087 386.278 366.975 387.32 368.826 387.792L369.098 387.861L371.342 395.346L342.543 403.981L340.299 396.495L340.488 396.288C341.774 394.875 343.612 392.417 344.925 389.658C346.163 387.058 346.89 384.285 346.363 381.89L342.724 382.981L341.209 377.928L343.901 374.322C341.918 373.38 340.304 371.587 339.605 369.255C338.332 365.01 340.575 360.586 344.614 359.375C348.654 358.164 352.96 360.624 354.233 364.869Z" fill="#34364C"/>
</g>
<rect width="74.0088" height="77.7822" transform="translate(349.323 501.76) rotate(-16.6895)" fill="#E8EDF9"/>
<g clip-path="url(#clip24)">
<rect width="74.0087" height="77.7822" transform="translate(393.999 650.771) rotate(-16.6895)" fill="#E8EDF9"/>
<path d="M472.569 702.381L469.711 692.847L472.526 692.003C473.369 691.751 474.172 691.714 474.935 691.895C475.702 692.074 476.368 692.455 476.933 693.037C477.498 693.619 477.913 694.356 478.18 695.246L478.324 695.724C478.595 696.628 478.652 697.477 478.495 698.271C478.342 699.064 477.988 699.746 477.431 700.317C476.879 700.887 476.173 701.301 475.313 701.559L472.569 702.381ZM471.768 693.686L473.829 700.562L474.91 700.238C475.778 699.977 476.363 699.507 476.663 698.827C476.967 698.141 476.97 697.289 476.674 696.269L476.515 695.739C476.205 694.704 475.743 693.981 475.13 693.57C474.517 693.16 473.782 693.082 472.927 693.339L471.768 693.686Z" fill="#B7C0D8"/>
<path d="M421.272 661.203C421.502 661.97 421.84 662.672 422.263 663.296L421.021 664.452C419.417 663.498 417.475 663.188 415.597 663.751C411.926 664.851 409.888 668.871 411.045 672.728C412.076 676.167 415.297 678.316 418.585 677.963L425.87 689.532C426.022 689.773 426.203 689.993 426.41 690.187L429.469 693.053L429.457 693.059C428.125 693.744 427.483 695.341 427.934 696.847L429.679 702.668C430.193 704.382 431.933 705.376 433.564 704.886L461.682 696.456C462.465 696.221 463.118 695.669 463.498 694.921C463.877 694.173 463.952 693.29 463.705 692.466L461.96 686.646C461.508 685.138 460.09 684.157 458.599 684.32L458.537 684.327L459.512 680.262C459.578 679.987 459.608 679.703 459.602 679.418L459.321 665.75C462.26 664.236 463.768 660.669 462.737 657.23C461.58 653.373 457.667 651.138 453.996 652.238C452.116 652.802 450.663 654.132 449.85 655.814L448.179 655.533C448.19 654.776 448.086 654.002 447.856 653.233C446.699 649.375 442.786 647.14 439.116 648.241C435.445 649.341 433.407 653.361 434.564 657.218C433.407 653.361 429.494 651.125 425.824 652.226C422.153 653.326 420.115 657.346 421.272 661.203Z" fill="#34364C"/>
<path d="M430.329 662.437C431.546 661.462 432.105 659.756 431.61 658.104C430.968 655.961 428.794 654.719 426.754 655.33C424.715 655.942 423.583 658.175 424.226 660.318C424.819 662.298 426.721 663.509 428.615 663.199L431.166 677.692L421.056 672.826C421.569 671.9 421.72 670.752 421.383 669.629C420.741 667.486 418.567 666.244 416.528 666.855C414.488 667.467 413.356 669.7 413.999 671.843C414.641 673.986 416.815 675.228 418.855 674.616C419.213 674.509 419.544 674.351 419.842 674.152L428.445 687.812L434.926 693.884L430.888 695.961L432.633 701.782L460.751 693.352L459.006 687.531L454.435 688.031L456.506 679.399L456.174 663.259C456.532 663.261 456.895 663.211 457.254 663.103C459.293 662.492 460.425 660.259 459.783 658.116C459.14 655.973 456.966 654.731 454.927 655.342C452.888 655.954 451.756 658.187 452.398 660.33C452.735 661.453 453.492 662.329 454.431 662.82L448.665 672.445L442.822 658.94C444.574 658.156 445.496 656.099 444.902 654.119C444.26 651.976 442.086 650.734 440.047 651.345C438.007 651.957 436.875 654.19 437.518 656.333C438.013 657.985 439.419 659.101 440.971 659.246L439.45 673.516L430.329 662.437Z" fill="#F4F7FA"/>
</g>
<g clip-path="url(#clip25)">
<rect width="74.0087" height="77.7822" transform="translate(401.754 161.229) rotate(-16.6895)" fill="#E8EDF9"/>
<path d="M440.041 194.688C439.84 195.299 439.578 195.952 439.25 196.641C438.093 199.071 436.443 201.279 435.32 202.512L435.132 202.72C434.377 203.548 434.117 204.747 434.451 205.861L436.696 213.347C437.21 215.061 438.949 216.055 440.58 215.566L469.38 206.931C471.011 206.442 471.917 204.656 471.403 202.941L469.158 195.456C468.824 194.342 467.948 193.483 466.862 193.206L466.59 193.137C464.974 192.725 462.381 191.789 460.078 190.396C459.426 190.001 458.848 189.601 458.344 189.201C459.541 188.484 460.137 186.968 459.698 185.505L458.183 180.452C457.881 179.443 457.131 178.637 456.172 178.29L454.639 177.736C454.919 176.041 454.826 174.24 454.294 172.464C452.507 166.504 446.461 163.051 440.79 164.751C435.119 166.451 431.971 172.661 433.758 178.621C434.32 180.497 435.306 182.126 436.568 183.422L435.852 184.383C435.242 185.2 435.059 186.285 435.362 187.294L436.877 192.347C437.315 193.811 438.646 194.749 440.041 194.688Z" fill="#F4F7FA"/>
<path d="M451.34 173.349C452.008 175.579 451.707 177.857 450.685 179.694L455.229 181.337L456.744 186.391L453.105 187.482C453.983 189.771 456.116 191.687 458.58 193.177C461.194 194.758 464.081 195.8 465.933 196.272L466.205 196.341L468.449 203.827L439.649 212.461L437.405 204.976L437.594 204.768C438.881 203.356 440.718 200.897 442.032 198.138C443.269 195.539 443.996 192.766 443.469 190.371L439.83 191.462L438.315 186.408L441.007 182.802C439.025 181.86 437.411 180.067 436.711 177.735C435.439 173.49 437.681 169.066 441.721 167.855C445.76 166.644 450.067 169.104 451.34 173.349Z" fill="#34364C"/>
</g>
<rect width="74.0088" height="77.7822" transform="translate(446.43 310.24) rotate(-16.6895)" fill="#E8EDF9"/>
<rect width="74.0088" height="77.7822" transform="translate(491.106 459.251) rotate(-16.6895)" fill="#E8EDF9"/>
<g clip-path="url(#clip26)">
<rect width="74.0087" height="77.7822" transform="translate(535.781 608.263) rotate(-16.6895)" fill="#E8EDF9"/>
<path d="M619.328 653.977L615.491 655.128L616.702 659.168L615.045 659.665L612.187 650.131L618.244 648.315L618.644 649.651L614.244 650.97L615.094 653.805L618.931 652.655L619.328 653.977Z" fill="#B7C0D8"/>
<path d="M570.795 622.197C570.241 621.429 569.802 620.553 569.513 619.589C568.183 615.154 570.526 610.534 574.746 609.269C578.965 608.004 583.464 610.573 584.793 615.008C585.183 616.307 585.256 617.627 585.059 618.872C585.829 618.701 586.668 618.839 587.394 619.32C591.339 621.934 595.367 626.14 597.093 631.897C598.327 636.013 597.893 639.468 596.73 642.212L600.381 641.812C601.872 641.649 603.29 642.629 603.742 644.137L605.487 649.958C605.734 650.781 605.659 651.664 605.28 652.412C604.9 653.161 604.247 653.713 603.464 653.948L575.346 662.378C573.715 662.867 571.975 661.874 571.461 660.159L569.716 654.338C569.265 652.833 569.907 651.236 571.239 650.55L574.186 649.034C571.68 647.386 569.389 644.73 568.144 640.577C566.797 636.085 567.281 631.676 568.324 628.096C568.981 625.845 569.883 623.831 570.795 622.197Z" fill="#34364C"/>
<path d="M584.139 635.334L581.185 636.219C579.476 630.519 579.415 624.335 581.806 619.078C582.131 618.091 582.166 616.983 581.839 615.893C581.024 613.173 578.265 611.597 575.676 612.373C573.088 613.149 571.651 615.983 572.467 618.703C572.869 620.045 573.745 621.109 574.839 621.749C572.57 624.82 568.891 632.33 571.098 639.691C573.325 647.119 579.768 648.465 582.86 648.211L572.67 653.453L574.415 659.274L602.533 650.843L600.788 645.023L589.13 646.299C591.866 644.737 596.332 640.098 594.139 632.783C592.703 627.993 589.3 624.36 585.784 622.03C583.644 625.21 582.942 631.341 584.139 635.334Z" fill="#F4F7FA"/>
</g>
<g clip-path="url(#clip27)">
<rect width="74.0087" height="77.7822" transform="translate(543.536 118.72) rotate(-16.6895)" fill="#E8EDF9"/>
<path d="M581.823 152.18C581.622 152.791 581.36 153.443 581.032 154.132C579.875 156.562 578.225 158.771 577.103 160.004L576.914 160.211C576.159 161.04 575.899 162.239 576.233 163.353L578.478 170.838C578.992 172.553 580.731 173.546 582.362 173.057L611.162 164.423C612.793 163.933 613.699 162.147 613.185 160.433L610.941 152.947C610.607 151.833 609.73 150.975 608.644 150.698L608.372 150.629C606.757 150.217 604.164 149.28 601.861 147.887C601.208 147.493 600.63 147.092 600.126 146.692C601.324 145.975 601.919 144.46 601.48 142.997L599.965 137.943C599.663 136.935 598.913 136.129 597.954 135.782L596.421 135.227C596.702 133.532 596.608 131.732 596.076 129.955C594.289 123.995 588.243 120.542 582.572 122.242C576.901 123.943 573.753 130.152 575.54 136.112C576.102 137.989 577.088 139.617 578.351 140.914L577.634 141.874C577.024 142.691 576.841 143.777 577.144 144.785L578.659 149.839C579.097 151.302 580.428 152.24 581.823 152.18Z" fill="#F4F7FA"/>
<path d="M593.122 130.841C593.79 133.07 593.489 135.349 592.467 137.186L597.011 138.829L598.526 143.882L594.888 144.973C595.765 147.263 597.898 149.178 600.362 150.668C602.976 152.25 605.863 153.292 607.715 153.763L607.987 153.833L610.231 161.318L581.431 169.953L579.187 162.467L579.376 162.26C580.663 160.847 582.501 158.389 583.814 155.63C585.051 153.03 585.778 150.257 585.251 147.862L581.612 148.953L580.097 143.9L582.789 140.294C580.807 139.352 579.193 137.558 578.494 135.227C577.221 130.981 579.463 126.558 583.503 125.347C587.542 124.136 591.849 126.595 593.122 130.841Z" fill="#34364C"/>
</g>
<rect width="74.0088" height="77.7822" transform="translate(588.212 267.732) rotate(-16.6895)" fill="#E8EDF9"/>
<rect width="74.0087" height="77.7822" transform="translate(632.888 416.743) rotate(-16.6895)" fill="#E8EDF9"/>
<g clip-path="url(#clip28)">
<rect width="74.0087" height="77.7822" transform="translate(677.564 565.754) rotate(-16.6895)" fill="#E8EDF9"/>
<path d="M763.317 615.211L761.667 615.705L760.396 611.469L756.134 612.747L757.404 616.983L755.747 617.48L752.889 607.946L754.546 607.45L755.735 611.418L759.998 610.14L758.808 606.172L760.458 605.677L763.317 615.211Z" fill="#B7C0D8"/>
<path d="M709.58 570.535C710.118 570.374 710.668 570.374 711.182 570.507C711.537 570.113 711.996 569.811 712.534 569.649L720.657 567.214C721.195 567.053 721.745 567.053 722.259 567.186C722.614 566.792 723.073 566.49 723.611 566.328L730.995 564.114C732.627 563.625 734.366 564.619 734.88 566.333L736.974 573.318C737.267 574.295 737.105 575.347 736.537 576.156L733.056 581.115L738.007 592.935C739.318 596.065 741.241 597.275 744.202 599.572C744.746 599.995 745.149 600.586 745.351 601.258L747.212 607.466C747.726 609.181 746.821 610.967 745.189 611.456L716.39 620.091C714.758 620.58 713.019 619.587 712.505 617.872L710.644 611.663C710.442 610.992 710.454 610.276 710.676 609.624C711.885 606.077 712.825 604.008 712.197 600.674L709.828 588.079L704.193 585.853C703.274 585.49 702.56 584.701 702.267 583.724L700.173 576.739C699.659 575.024 700.565 573.238 702.196 572.749L709.58 570.535Z" fill="#34364C"/>
<path d="M703.127 575.853L710.511 573.639L711.907 578.296L714.861 577.41L713.465 572.754L721.588 570.318L722.984 574.975L725.938 574.089L724.542 569.433L731.926 567.219L734.02 574.204L729.509 580.631L735.174 594.158L715.236 600.136L712.525 585.724L705.221 582.838L703.127 575.853Z" fill="#F4F7FA"/>
<path d="M716.167 603.241L736.105 597.263L742.397 602.143L744.259 608.352L715.459 616.987L713.598 610.778L716.167 603.241Z" fill="#F4F7FA"/>
</g>
<g clip-path="url(#clip29)">
<rect width="74.0088" height="77.7822" transform="translate(379.416 86.7233) rotate(-16.6895)" fill="#B7C0D8"/>
<path d="M414.43 100.657C413.876 99.8894 413.436 99.0131 413.147 98.0494C411.818 93.6148 414.161 88.9942 418.38 87.7292C422.6 86.4641 427.098 89.0335 428.428 93.4682C428.817 94.7672 428.891 96.0871 428.694 97.333C429.464 97.1618 430.303 97.2991 431.029 97.7803C434.974 100.394 439.001 104.601 440.727 110.358C441.961 114.474 441.527 117.928 440.364 120.672L444.016 120.273C445.507 120.109 446.924 121.09 447.376 122.598L449.121 128.418C449.368 129.242 449.294 130.125 448.914 130.873C448.535 131.621 447.882 132.174 447.098 132.408L418.98 140.839C417.349 141.328 415.61 140.334 415.096 138.62L413.351 132.799C412.899 131.293 413.541 129.696 414.874 129.011L417.821 127.495C415.314 125.846 413.024 123.19 411.779 119.037C410.432 114.545 410.915 110.137 411.959 106.556C412.615 104.306 413.518 102.292 414.43 100.657Z" fill="#F4F7FA"/>
<path d="M427.774 113.794L424.82 114.68C423.111 108.979 423.05 102.796 425.44 97.5389C425.766 96.552 425.801 95.4438 425.474 94.3538C424.658 91.6336 421.899 90.0576 419.311 90.8336C416.723 91.6095 415.286 94.4437 416.101 97.1638C416.504 98.5059 417.379 99.5694 418.474 100.209C416.204 103.28 412.526 110.791 414.732 118.152C416.96 125.58 423.403 126.926 426.495 126.671L416.305 131.913L418.05 137.734L446.168 129.304L444.423 123.483L432.765 124.759C435.501 123.198 439.967 118.559 437.773 111.243C436.337 106.454 432.934 102.821 429.419 100.491C427.278 103.67 426.577 109.802 427.774 113.794Z" fill="#34364C"/>
</g>
<rect width="74.0088" height="77.7822" transform="translate(424.092 235.735) rotate(-16.6895)" fill="#B7C0D8"/>
<g clip-path="url(#clip30)">
<rect width="74.0087" height="77.7823" transform="translate(468.768 384.746) rotate(-16.6895)" fill="#B7C0D8"/>
<path d="M507.055 418.205C506.854 418.816 506.591 419.469 506.264 420.157C505.107 422.588 503.457 424.796 502.334 426.029L502.145 426.237C501.391 427.065 501.131 428.264 501.465 429.378L503.709 436.864C504.223 438.578 505.963 439.572 507.594 439.083L536.393 430.448C538.025 429.959 538.93 428.172 538.416 426.458L536.172 418.973C535.838 417.858 534.962 417 533.876 416.723L533.604 416.654C531.988 416.242 529.395 415.306 527.092 413.913C526.44 413.518 525.861 413.118 525.357 412.718C526.555 412.001 527.151 410.485 526.712 409.022L525.197 403.969C524.894 402.96 524.145 402.154 523.186 401.807L521.652 401.253C521.933 399.557 521.84 397.757 521.307 395.981C519.52 390.021 513.475 386.568 507.804 388.268C502.133 389.968 498.984 396.178 500.771 402.138C501.334 404.014 502.32 405.643 503.582 406.939L502.865 407.9C502.256 408.717 502.073 409.802 502.375 410.811L503.89 415.864C504.329 417.327 505.66 418.265 507.055 418.205Z" fill="#34364C"/>
<path d="M518.353 396.866C519.022 399.096 518.721 401.374 517.699 403.211L522.243 404.854L523.758 409.908L520.119 410.999C520.997 413.288 523.13 415.204 525.593 416.694C528.208 418.275 531.095 419.317 532.947 419.789L533.218 419.858L535.463 427.344L506.663 435.978L504.419 428.493L504.608 428.285C505.894 426.872 507.732 424.414 509.045 421.655C510.283 419.056 511.01 416.283 510.483 413.888L506.844 414.979L505.329 409.925L508.021 406.319C506.038 405.377 504.424 403.584 503.725 401.252C502.452 397.007 504.695 392.583 508.735 391.372C512.774 390.161 517.081 392.621 518.353 396.866Z" fill="#F4F7FA"/>
</g>
<rect width="74.0088" height="77.7822" transform="translate(513.444 533.757) rotate(-16.6895)" fill="#B7C0D8"/>
<g clip-path="url(#clip31)">
<rect width="74.0087" height="77.7822" transform="translate(237.634 129.232) rotate(-16.6895)" fill="#B7C0D8"/>
<path d="M264.906 139.664C265.136 140.43 265.474 141.132 265.898 141.757L264.655 142.913C263.052 141.959 261.11 141.648 259.231 142.211C255.561 143.312 253.523 147.331 254.68 151.189C255.711 154.628 258.932 156.777 262.219 156.424L269.504 167.992C269.656 168.234 269.838 168.454 270.044 168.647L273.103 171.513L273.091 171.519C271.759 172.205 271.117 173.802 271.569 175.307L273.314 181.128C273.828 182.843 275.567 183.836 277.198 183.347L305.316 174.917C306.1 174.682 306.753 174.13 307.132 173.381C307.512 172.633 307.586 171.75 307.339 170.927L305.594 165.106C305.142 163.598 303.725 162.618 302.234 162.781L302.171 162.788L303.146 158.723C303.212 158.448 303.242 158.164 303.237 157.879L302.955 144.211C305.895 142.697 307.402 139.13 306.371 135.691C305.214 131.833 301.301 129.598 297.631 130.699C295.75 131.262 294.298 132.593 293.484 134.275L291.814 133.994C291.825 133.237 291.721 132.462 291.491 131.694C290.334 127.836 286.421 125.601 282.75 126.701C279.08 127.802 277.042 131.821 278.198 135.679C277.042 131.821 273.129 129.586 269.458 130.687C265.788 131.787 263.75 135.806 264.906 139.664Z" fill="#F4F7FA"/>
<path d="M273.964 140.897C275.181 139.922 275.74 138.217 275.245 136.564C274.602 134.421 272.428 133.18 270.389 133.791C268.35 134.402 267.218 136.635 267.86 138.778C268.454 140.759 270.355 141.97 272.25 141.659L274.801 156.152L264.691 151.287C265.204 150.36 265.355 149.212 265.018 148.089C264.375 145.946 262.201 144.704 260.162 145.316C258.123 145.927 256.991 148.16 257.633 150.303C258.276 152.446 260.45 153.688 262.489 153.077C262.848 152.969 263.179 152.811 263.477 152.612L272.079 166.273L278.56 172.345L274.522 174.422L276.268 180.243L304.385 171.812L302.64 165.992L298.07 166.492L300.14 157.86L299.808 141.72C300.166 141.722 300.529 141.672 300.888 141.564C302.928 140.953 304.06 138.72 303.417 136.576C302.775 134.433 300.601 133.192 298.562 133.803C296.522 134.414 295.39 136.647 296.033 138.79C296.369 139.914 297.127 140.789 298.065 141.28L292.3 150.906L286.456 137.4C288.209 136.617 289.13 134.56 288.537 132.579C287.894 130.436 285.72 129.194 283.681 129.806C281.642 130.417 280.51 132.65 281.152 134.793C281.648 136.445 283.053 137.562 284.605 137.707L283.085 151.977L273.964 140.897Z" fill="#34364C"/>
</g>
<rect width="74.0088" height="77.7822" transform="translate(282.31 278.243) rotate(-16.6895)" fill="#B7C0D8"/>
<rect opacity="0.5" x="314.011" y="296.926" width="24" height="24" rx="12" transform="rotate(-16.6895 314.011 296.926)" fill="#7B61FF"/>
<rect width="74.0087" height="77.7823" transform="translate(326.985 427.254) rotate(-16.6895)" fill="#B7C0D8"/>
<g clip-path="url(#clip32)">
<rect width="74.0087" height="77.7822" transform="translate(371.661 576.266) rotate(-16.6895)" fill="#B7C0D8"/>
<path d="M409.948 609.725C409.747 610.336 409.485 610.989 409.157 611.677C408 614.107 406.35 616.316 405.228 617.549L405.039 617.756C404.284 618.585 404.025 619.784 404.359 620.898L406.603 628.383C407.117 630.098 408.856 631.091 410.487 630.602L439.287 621.968C440.918 621.479 441.824 619.692 441.31 617.978L439.066 610.492C438.732 609.378 437.855 608.52 436.769 608.243L436.497 608.174C434.882 607.762 432.289 606.825 429.986 605.432C429.333 605.038 428.755 604.637 428.251 604.237C429.449 603.52 430.044 602.005 429.605 600.542L428.09 595.488C427.788 594.48 427.038 593.674 426.08 593.327L424.546 592.772C424.827 591.077 424.733 589.277 424.201 587.5C422.414 581.541 416.368 578.087 410.697 579.787C405.027 581.488 401.878 587.697 403.665 593.657C404.227 595.534 405.214 597.162 406.476 598.459L405.759 599.42C405.149 600.236 404.966 601.322 405.269 602.331L406.784 607.384C407.223 608.847 408.554 609.785 409.948 609.725Z" fill="#34364C"/>
<path d="M421.247 588.386C421.916 590.616 421.614 592.894 420.593 594.731L425.137 596.374L426.652 601.427L423.013 602.518C423.891 604.808 426.023 606.724 428.487 608.214C431.101 609.795 433.989 610.837 435.84 611.309L436.112 611.378L438.356 618.863L409.557 627.498L407.312 620.012L407.501 619.805C408.788 618.392 410.626 615.934 411.939 613.175C413.176 610.575 413.903 607.802 413.377 605.407L409.738 606.498L408.223 601.445L410.915 597.839C408.932 596.897 407.318 595.104 406.619 592.772C405.346 588.526 407.589 584.103 411.628 582.892C415.668 581.681 419.974 584.141 421.247 588.386Z" fill="#F4F7FA"/>
</g>
<g clip-path="url(#clip33)">
<rect width="74.0088" height="77.7822" transform="translate(521.198 44.2148) rotate(-16.6895)" fill="#B7C0D8"/>
<path d="M553.215 48.9954C553.753 48.8341 554.303 48.834 554.816 48.9679C555.172 48.5735 555.631 48.2711 556.169 48.1098L564.292 45.6744C564.83 45.5131 565.379 45.5131 565.893 45.6469C566.248 45.2525 566.707 44.9501 567.245 44.7888L574.63 42.5748C576.261 42.0857 578 43.0791 578.514 44.7936L580.609 51.7785C580.902 52.7557 580.74 53.807 580.172 54.6163L576.691 59.5755L581.642 71.3959C582.952 74.5254 584.875 75.736 587.836 78.0326C588.381 78.455 588.784 79.0465 588.985 79.7182L590.847 85.927C591.361 87.6415 590.455 89.4279 588.824 89.917L560.024 98.5515C558.393 99.0406 556.654 98.0472 556.14 96.3327L554.278 90.1239C554.077 89.4522 554.088 88.7365 554.311 88.0841C555.52 84.5372 556.459 82.4684 555.832 79.1341L553.463 66.5397L547.828 64.3136C546.908 63.9503 546.194 63.1614 545.902 62.1843L543.807 55.1994C543.293 53.4849 544.199 51.6985 545.83 51.2094L553.215 48.9954Z" fill="#F4F7FA"/>
<path d="M546.761 54.3138L554.146 52.0998L555.542 56.7564L558.496 55.8708L557.1 51.2142L565.222 48.7788L566.619 53.4354L569.572 52.5498L568.176 47.8932L575.561 45.6792L577.655 52.6641L573.143 59.0919L578.809 72.6189L558.871 78.5967L556.159 64.1841L548.855 61.2987L546.761 54.3138Z" fill="#34364C"/>
<path d="M559.801 81.7011L579.739 75.7233L586.032 80.6038L587.893 86.8126L559.094 95.4471L557.232 89.2383L559.801 81.7011Z" fill="#34364C"/>
</g>
<rect width="74.0087" height="77.7822" transform="translate(565.874 193.226) rotate(-16.6895)" fill="#B7C0D8"/>
<rect width="74.0087" height="77.7823" transform="translate(610.55 342.237) rotate(-16.6895)" fill="#B7C0D8"/>
<g clip-path="url(#clip34)">
<rect width="74.0088" height="77.7822" transform="translate(655.226 491.249) rotate(-16.6895)" fill="#B7C0D8"/>
<path d="M693.513 524.708C693.312 525.319 693.049 525.972 692.722 526.66C691.565 529.09 689.915 531.299 688.792 532.532L688.603 532.739C687.849 533.568 687.589 534.767 687.923 535.881L690.167 543.366C690.681 545.081 692.421 546.074 694.052 545.585L722.851 536.951C724.483 536.462 725.388 534.675 724.874 532.961L722.63 525.475C722.296 524.361 721.42 523.503 720.334 523.226L720.062 523.157C718.446 522.745 715.853 521.808 713.55 520.415C712.898 520.021 712.319 519.62 711.815 519.22C713.013 518.504 713.609 516.988 713.17 515.525L711.655 510.471C711.352 509.463 710.603 508.657 709.644 508.31L708.11 507.755C708.391 506.06 708.298 504.26 707.765 502.484C705.978 496.524 699.933 493.07 694.262 494.771C688.591 496.471 685.442 502.681 687.229 508.64C687.792 510.517 688.778 512.145 690.04 513.442L689.323 514.403C688.714 515.219 688.531 516.305 688.833 517.314L690.348 522.367C690.787 523.83 692.118 524.768 693.513 524.708Z" fill="#34364C"/>
<path d="M704.811 503.369C705.48 505.599 705.179 507.877 704.157 509.714L708.701 511.357L710.216 516.41L706.577 517.501C707.455 519.791 709.588 521.707 712.051 523.197C714.666 524.778 717.553 525.82 719.405 526.292L719.676 526.361L721.921 533.846L693.121 542.481L690.877 534.995L691.066 534.788C692.352 533.375 694.19 530.917 695.503 528.158C696.741 525.558 697.468 522.785 696.941 520.39L693.302 521.481L691.787 516.428L694.479 512.822C692.496 511.88 690.882 510.087 690.183 507.755C688.91 503.509 691.153 499.086 695.193 497.875C699.232 496.664 703.539 499.124 704.811 503.369Z" fill="#F4F7FA"/>
</g>
</g>
<defs>
<filter id="filter0_d" x="-1" y="-0.999969" width="797.753" height="818" filterUnits="userSpaceOnUse" color-interpolation-filters="sRGB">
<feFlood flood-opacity="0" result="BackgroundImageFix"/>
<feColorMatrix in="SourceAlpha" type="matrix" values="0 0 0 0 0 0 0 0 0 0 0 0 0 0 0 0 0 0 127 0" result="hardAlpha"/>
<feOffset dy="2"/>
<feGaussianBlur stdDeviation="8"/>
<feColorMatrix type="matrix" values="0 0 0 0 0.783854 0 0 0 0 0.809375 0 0 0 0 0.875 0 0 0 0.5 0"/>
<feBlend mode="normal" in2="BackgroundImageFix" result="effect1_dropShadow"/>
<feBlend mode="normal" in="SourceGraphic" in2="effect1_dropShadow" result="shape"/>
</filter>
<clipPath id="clip0">
<rect width="74.0087" height="77.7822" fill="white" transform="translate(24.9604 192.994) rotate(-16.6895)"/>
</clipPath>
<clipPath id="clip1">
<rect width="74.0087" height="77.7822" fill="white" transform="translate(158.988 640.028) rotate(-16.6895)"/>
</clipPath>
<clipPath id="clip2">
<rect width="74.0087" height="77.7822" fill="white" transform="translate(47.2983 267.5) rotate(-16.6895)"/>
</clipPath>
<clipPath id="clip3">
<rect width="74.0087" height="77.7822" fill="white" transform="translate(181.326 714.534) rotate(-16.6895)"/>
</clipPath>
<clipPath id="clip4">
<rect width="74.0088" height="77.7822" fill="white" transform="translate(189.081 224.992) rotate(-16.6895)"/>
</clipPath>
<clipPath id="clip5">
<rect width="74.0088" height="77.7822" fill="white" transform="translate(323.108 672.025) rotate(-16.6895)"/>
</clipPath>
<clipPath id="clip6">
<rect width="74.0088" height="77.7822" fill="white" transform="translate(330.863 182.483) rotate(-16.6895)"/>
</clipPath>
<clipPath id="clip7">
<rect width="74.0087" height="77.7822" fill="white" transform="translate(464.89 629.517) rotate(-16.6895)"/>
</clipPath>
<clipPath id="clip8">
<rect width="55.5066" height="58.3367" fill="white" transform="translate(476.544 636.173) rotate(-16.6895)"/>
</clipPath>
<clipPath id="clip9">
<rect width="74.0088" height="77.7822" fill="white" transform="translate(472.645 139.975) rotate(-16.6895)"/>
</clipPath>
<clipPath id="clip10">
<rect width="74.0088" height="77.7822" fill="white" transform="translate(606.673 587.008) rotate(-16.6895)"/>
</clipPath>
<clipPath id="clip11">
<rect width="74.0087" height="77.7822" fill="white" transform="translate(308.525 107.977) rotate(-16.6895)"/>
</clipPath>
<clipPath id="clip12">
<rect width="55.5066" height="58.3367" fill="white" transform="translate(320.178 114.634) rotate(-16.6895)"/>
</clipPath>
<clipPath id="clip13">
<rect width="74.0087" height="77.7822" fill="white" transform="translate(442.552 555.011) rotate(-16.6895)"/>
</clipPath>
<clipPath id="clip14">
<rect width="74.0087" height="77.7822" fill="white" transform="translate(166.743 150.486) rotate(-16.6895)"/>
</clipPath>
<clipPath id="clip15">
<rect width="74.0087" height="77.7822" fill="white" transform="translate(300.77 597.52) rotate(-16.6895)"/>
</clipPath>
<clipPath id="clip16">
<rect width="74.0087" height="77.7822" fill="white" transform="translate(450.307 65.469) rotate(-16.6895)"/>
</clipPath>
<clipPath id="clip17">
<rect width="74.0087" height="77.7822" fill="white" transform="translate(584.335 512.503) rotate(-16.6895)"/>
</clipPath>
<clipPath id="clip18">
<rect width="74.0087" height="77.7822" fill="white" transform="translate(95.8516 171.74) rotate(-16.6895)"/>
</clipPath>
<clipPath id="clip19">
<rect width="74.0088" height="77.7822" fill="white" transform="translate(229.879 618.774) rotate(-16.6895)"/>
</clipPath>
<clipPath id="clip20">
<rect width="74.0087" height="77.7822" fill="white" transform="translate(118.189 246.246) rotate(-16.6895)"/>
</clipPath>
<clipPath id="clip21">
<rect width="74.0087" height="77.7822" fill="white" transform="translate(252.217 693.28) rotate(-16.6895)"/>
</clipPath>
<clipPath id="clip22">
<rect width="74.0087" height="77.7822" fill="white" transform="translate(259.972 203.737) rotate(-16.6895)"/>
</clipPath>
<clipPath id="clip23">
<rect width="74.0087" height="77.7822" fill="white" transform="translate(304.648 352.749) rotate(-16.6895)"/>
</clipPath>
<clipPath id="clip24">
<rect width="74.0087" height="77.7822" fill="white" transform="translate(393.999 650.771) rotate(-16.6895)"/>
</clipPath>
<clipPath id="clip25">
<rect width="74.0087" height="77.7822" fill="white" transform="translate(401.754 161.229) rotate(-16.6895)"/>
</clipPath>
<clipPath id="clip26">
<rect width="74.0087" height="77.7822" fill="white" transform="translate(535.781 608.263) rotate(-16.6895)"/>
</clipPath>
<clipPath id="clip27">
<rect width="74.0087" height="77.7822" fill="white" transform="translate(543.536 118.72) rotate(-16.6895)"/>
</clipPath>
<clipPath id="clip28">
<rect width="74.0087" height="77.7822" fill="white" transform="translate(677.564 565.754) rotate(-16.6895)"/>
</clipPath>
<clipPath id="clip29">
<rect width="74.0088" height="77.7822" fill="white" transform="translate(379.416 86.7233) rotate(-16.6895)"/>
</clipPath>
<clipPath id="clip30">
<rect width="74.0087" height="77.7823" fill="white" transform="translate(468.768 384.746) rotate(-16.6895)"/>
</clipPath>
<clipPath id="clip31">
<rect width="74.0087" height="77.7822" fill="white" transform="translate(237.634 129.232) rotate(-16.6895)"/>
</clipPath>
<clipPath id="clip32">
<rect width="74.0087" height="77.7822" fill="white" transform="translate(371.661 576.266) rotate(-16.6895)"/>
</clipPath>
<clipPath id="clip33">
<rect width="74.0088" height="77.7822" fill="white" transform="translate(521.198 44.2148) rotate(-16.6895)"/>
</clipPath>
<clipPath id="clip34">
<rect width="74.0088" height="77.7822" fill="white" transform="translate(655.226 491.249) rotate(-16.6895)"/>
</clipPath>
</defs>
</svg>
