<svg width="54" height="54" viewBox="0 0 54 54" fill="none" xmlns="http://www.w3.org/2000/svg">
<path d="M48.0221 50.63C49.4622 50.63 50.63 49.4622 50.63 48.0217V5.98309C50.63 4.54245 49.4623 3.375 48.0221 3.375H5.98311C4.54245 3.375 3.375 4.54245 3.375 5.98309V48.0217C3.375 49.462 4.54227 50.63 5.98311 50.63H48.0221Z" fill="#3C5A99"/>
<path d="M35.9803 50.63V32.3303H42.1227L43.0424 25.1985H35.9803V20.6454C35.9803 18.5806 36.5537 17.1735 39.5146 17.1735L43.2911 17.1718V10.7931C42.6379 10.7062 40.3962 10.5121 37.7881 10.5121C32.3432 10.5121 28.6155 13.8356 28.6155 19.9391V25.1985H22.4573V32.3303H28.6155V50.63H35.9803Z" fill="white"/>
</svg>
