<svg width="721" height="755" viewBox="0 0 721 755" fill="none" xmlns="http://www.w3.org/2000/svg">
	<g filter="url(#filter0_d)">
		<rect x="16" y="14" width="689" height="723" rx="8" fill="#F4F7FA" />
		<rect width="673" height="707" transform="translate(24 22)" fill="#F4F7FA" />
		<rect width="84.125" height="88.375" transform="translate(24 22)" fill="#E8EDF9" />
		<path d="M37.0352 30.6719C37.0352 31.1595 36.9098 31.5947 36.6592 31.9775C36.4085 32.3558 36.0667 32.6543 35.6338 32.873C36.1533 33.1146 36.5521 33.445 36.8301 33.8643C37.1126 34.2835 37.2539 34.7575 37.2539 35.2861C37.2539 36.1611 36.9577 36.8561 36.3652 37.3711C35.7728 37.8815 34.9844 38.1367 34 38.1367C33.0111 38.1367 32.2181 37.8792 31.6211 37.3643C31.0286 36.8493 30.7324 36.1566 30.7324 35.2861C30.7324 34.7529 30.8737 34.2744 31.1562 33.8506C31.4388 33.4268 31.8353 33.1009 32.3457 32.873C31.9173 32.6543 31.5778 32.3558 31.3271 31.9775C31.0811 31.5947 30.958 31.1595 30.958 30.6719C30.958 29.8242 31.2314 29.152 31.7783 28.6553C32.3252 28.1585 33.0635 27.9102 33.9932 27.9102C34.9274 27.9102 35.668 28.1585 36.2148 28.6553C36.7617 29.152 37.0352 29.8242 37.0352 30.6719ZM35.5928 35.2041C35.5928 34.7119 35.4447 34.3154 35.1484 34.0146C34.8568 33.7093 34.4694 33.5566 33.9863 33.5566C33.5033 33.5566 33.1159 33.707 32.8242 34.0078C32.5371 34.3086 32.3936 34.7074 32.3936 35.2041C32.3936 35.6917 32.5348 36.0814 32.8174 36.373C33.1045 36.6647 33.4987 36.8105 34 36.8105C34.5013 36.8105 34.891 36.6693 35.1689 36.3867C35.4515 36.1042 35.5928 35.71 35.5928 35.2041ZM35.3809 30.7334C35.3809 30.3005 35.2555 29.945 35.0049 29.667C34.7542 29.3844 34.417 29.2432 33.9932 29.2432C33.5693 29.2432 33.2344 29.3776 32.9883 29.6465C32.7422 29.9108 32.6191 30.2731 32.6191 30.7334C32.6191 31.1891 32.7422 31.5514 32.9883 31.8203C33.2389 32.0892 33.5762 32.2236 34 32.2236C34.4238 32.2236 34.7588 32.0892 35.0049 31.8203C35.2555 31.5514 35.3809 31.1891 35.3809 30.7334Z" fill="#B7C0D8" />
		<path d="M57.2995 37.6497C57.9379 37.6497 58.5365 37.8291 59.0521 38.1424C59.5677 37.8291 60.1662 37.6497 60.8047 37.6497H70.444C71.0825 37.6497 71.681 37.8291 72.1966 38.1424C72.7122 37.8291 73.3108 37.6497 73.9492 37.6497H82.7122C84.6481 37.6497 86.2174 39.2984 86.2174 41.332V49.6172C86.2174 50.7762 85.698 51.8676 84.8154 52.563L79.4067 56.8245L80.9382 71.3043C81.3437 75.1378 83.0422 77.0828 85.5164 80.5485C85.9715 81.1858 86.2174 81.9611 86.2174 82.7578V90.1224C86.2174 92.1561 84.6481 93.8047 82.7122 93.8047H48.5365C46.6006 93.8047 45.0312 92.1561 45.0312 90.1224V82.7578C45.0312 81.9611 45.2772 81.1858 45.7323 80.5484C48.2065 77.0828 49.905 75.1378 50.3105 71.3043L51.842 56.8245L46.4333 52.563C45.5507 51.8676 45.0312 50.7762 45.0312 49.6172V41.332C45.0312 39.2984 46.6006 37.6497 48.5365 37.6497H57.2995Z" fill="#F4F7FA" />
		<path d="M48.5366 41.332H57.2996V46.8555H60.8048V41.332H70.4442V46.8555H73.9494V41.332H82.7124V49.6172L75.702 55.1406L77.4546 71.7109H53.7944L55.547 55.1406L48.5366 49.6172V41.332Z" fill="#34364C" />
		<path d="M53.7944 75.3932H77.4546L82.7124 82.7578V90.1224H48.5366V82.7578L53.7944 75.3932Z" fill="#34364C" />
		<rect width="84.125" height="88.375" transform="translate(24 198.75)" fill="#E8EDF9" />
		<path d="M35.9346 204.749V206.123H35.7295C34.7998 206.137 34.057 206.392 33.501 206.889C32.945 207.385 32.6146 208.09 32.5098 209.001C33.043 208.44 33.7243 208.16 34.5537 208.16C35.4333 208.16 36.126 208.47 36.6318 209.09C37.1423 209.71 37.3975 210.509 37.3975 211.489C37.3975 212.501 37.099 213.321 36.502 213.95C35.9095 214.575 35.1302 214.887 34.1641 214.887C33.1706 214.887 32.3639 214.52 31.7441 213.786C31.1289 213.052 30.8213 212.091 30.8213 210.901V210.334C30.8213 208.589 31.2451 207.221 32.0928 206.232C32.945 205.243 34.1686 204.749 35.7637 204.749H35.9346ZM34.1504 209.5C33.7858 209.5 33.4508 209.603 33.1455 209.808C32.8447 210.013 32.6237 210.286 32.4824 210.628V211.134C32.4824 211.872 32.6374 212.46 32.9473 212.897C33.2572 213.33 33.6582 213.547 34.1504 213.547C34.6426 213.547 35.0322 213.362 35.3193 212.993C35.6064 212.624 35.75 212.139 35.75 211.537C35.75 210.936 35.6042 210.446 35.3125 210.067C35.0208 209.689 34.6335 209.5 34.1504 209.5Z" fill="#B7C0D8" />
		<rect width="84.125" height="88.375" transform="translate(24 375.5)" fill="#E8EDF9" />
		<path d="M36.3857 387.952H37.623V389.285H36.3857V391.5H34.7246V389.285H30.4248L30.377 388.273L34.6699 381.547H36.3857V387.952ZM32.1201 387.952H34.7246V383.796L34.6016 384.015L32.1201 387.952Z" fill="#B7C0D8" />
		<rect width="84.125" height="88.375" transform="translate(24 552.25)" fill="#E8EDF9" />
		<path d="M37.459 568.25H30.7666V567.108L34.082 563.492C34.5605 562.959 34.9001 562.515 35.1006 562.159C35.3057 561.799 35.4082 561.439 35.4082 561.079C35.4082 560.605 35.2738 560.222 35.0049 559.931C34.7406 559.639 34.3828 559.493 33.9316 559.493C33.3939 559.493 32.9769 559.657 32.6807 559.985C32.3844 560.313 32.2363 560.762 32.2363 561.332H30.5752C30.5752 560.726 30.7119 560.181 30.9854 559.698C31.2633 559.211 31.6576 558.832 32.168 558.563C32.6829 558.295 33.2754 558.16 33.9453 558.16C34.9115 558.16 35.6725 558.404 36.2285 558.892C36.7891 559.375 37.0693 560.045 37.0693 560.901C37.0693 561.398 36.9281 561.92 36.6455 562.467C36.3675 563.009 35.9095 563.627 35.2715 564.319L32.8379 566.924H37.459V568.25Z" fill="#B7C0D8" />
		<path d="M54.7648 601.157C54.3466 601.757 53.8476 602.382 53.2659 603.024C51.2131 605.291 48.6956 607.157 47.0707 608.132L46.7974 608.296C45.7052 608.952 45.0312 610.172 45.0312 611.494V620.372C45.0312 622.406 46.6006 624.055 48.5365 624.055H82.7122C84.6481 624.055 86.2174 622.406 86.2174 620.372V611.494C86.2174 610.172 85.5435 608.952 84.4513 608.296L84.178 608.132C82.5532 607.157 80.0356 605.291 77.9828 603.024C77.4011 602.382 76.9021 601.757 76.4839 601.157C78.0223 600.768 79.1653 599.313 79.1653 597.577V591.583C79.1653 590.387 78.612 589.265 77.6815 588.575L76.1928 587.471C77.0517 585.718 77.5379 583.728 77.5379 581.621C77.5379 574.551 72.0826 568.82 65.3531 568.82C58.6237 568.82 53.1683 574.551 53.1683 581.621C53.1683 583.846 53.7105 585.94 54.6614 587.763L53.5672 588.575C52.6367 589.265 52.0834 590.387 52.0834 591.583V597.577C52.0834 599.313 53.2264 600.768 54.7648 601.157Z" fill="#34364C" />
		<path d="M74.0328 581.621C74.0328 584.265 72.9612 586.647 71.2492 588.312L75.6603 591.583V597.577H71.342C71.5502 600.356 73.2472 603.136 75.4431 605.562C77.7734 608.136 80.5771 610.212 82.4391 611.329L82.7124 611.494V620.372H48.5366V611.494L48.81 611.329C50.6719 610.212 53.4756 608.136 55.806 605.562C58.0018 603.136 59.6988 600.356 59.907 597.577H55.5888V591.583L59.6969 588.537C57.8459 586.865 56.6737 584.386 56.6737 581.621C56.6737 576.585 60.5597 572.503 65.3533 572.503C70.1469 572.503 74.0328 576.585 74.0328 581.621Z" fill="#F4F7FA" />
		<rect width="84.125" height="88.375" transform="translate(24 110.375)" fill="#B7C0D8" />
		<path d="M37.3906 117.345L33.4121 126.375H31.6689L35.6406 117.755H30.4932V116.422H37.3906V117.345Z" fill="#E8EDF9" />
		<path d="M54.7648 159.282C54.3466 159.882 53.8476 160.507 53.2659 161.149C51.2131 163.416 48.6956 165.282 47.0707 166.257L46.7974 166.421C45.7052 167.077 45.0312 168.297 45.0312 169.619V178.497C45.0312 180.531 46.6006 182.18 48.5365 182.18H82.7122C84.6481 182.18 86.2174 180.531 86.2174 178.497V169.619C86.2174 168.297 85.5434 167.077 84.4513 166.421L84.178 166.257C82.5532 165.282 80.0356 163.416 77.9828 161.149C77.4011 160.507 76.9021 159.882 76.4839 159.282C78.0223 158.893 79.1653 157.438 79.1653 155.702V149.708C79.1653 148.512 78.6119 147.39 77.6815 146.7L76.1928 145.596C77.0517 143.843 77.5379 141.853 77.5379 139.746C77.5379 132.676 72.0826 126.945 65.3531 126.945C58.6236 126.945 53.1683 132.676 53.1683 139.746C53.1683 141.971 53.7105 144.065 54.6614 145.888L53.5672 146.7C52.6367 147.39 52.0834 148.512 52.0834 149.708V155.702C52.0834 157.438 53.2264 158.893 54.7648 159.282Z" fill="#E8EDF9" />
		<path d="M74.0328 139.746C74.0328 142.39 72.9612 144.772 71.2492 146.437L75.6603 149.708V155.702H71.342C71.5502 158.481 73.2472 161.261 75.4431 163.687C77.7734 166.261 80.5771 168.337 82.4391 169.454L82.7124 169.618V178.497H48.5366V169.618L48.81 169.454C50.6719 168.337 53.4756 166.261 55.806 163.687C58.0018 161.261 59.6988 158.481 59.907 155.702H55.5888V149.708L59.6969 146.662C57.8459 144.99 56.6737 142.511 56.6737 139.746C56.6737 134.71 60.5597 130.628 65.3533 130.628C70.1469 130.628 74.0328 134.71 74.0328 139.746Z" fill="#34364C" />
		<rect width="84.125" height="88.375" transform="translate(24 287.125)" fill="#B7C0D8" />
		<path d="M31.2109 298.189L31.751 293.172H37.0967V294.607H33.1318L32.8584 296.986C33.3187 296.722 33.8382 296.59 34.417 296.59C35.3649 296.59 36.1009 296.893 36.625 297.499C37.1536 298.105 37.418 298.921 37.418 299.946C37.418 300.958 37.1263 301.765 36.543 302.366C35.9596 302.963 35.1598 303.262 34.1436 303.262C33.2321 303.262 32.4756 303.004 31.874 302.489C31.277 301.97 30.9535 301.286 30.9033 300.438H32.5098C32.5736 300.922 32.7467 301.293 33.0293 301.553C33.3118 301.808 33.681 301.936 34.1367 301.936C34.6471 301.936 35.0436 301.753 35.3262 301.389C35.6133 301.024 35.7568 300.527 35.7568 299.898C35.7568 299.292 35.5996 298.814 35.2852 298.463C34.9707 298.107 34.5378 297.93 33.9863 297.93C33.6855 297.93 33.4303 297.971 33.2207 298.053C33.0111 298.13 32.7832 298.285 32.5371 298.518L31.2109 298.189Z" fill="#E8EDF9" />
		<rect width="84.125" height="88.375" transform="translate(24 463.875)" fill="#B7C0D8" />
		<path d="M32.6875 474.14H33.6992C34.2096 474.135 34.613 474.003 34.9092 473.743C35.21 473.483 35.3604 473.107 35.3604 472.615C35.3604 472.141 35.235 471.774 34.9844 471.515C34.7383 471.25 34.36 471.118 33.8496 471.118C33.403 471.118 33.0361 471.248 32.749 471.508C32.4619 471.763 32.3184 472.098 32.3184 472.513H30.6572C30.6572 472.002 30.7917 471.537 31.0605 471.118C31.334 470.699 31.7122 470.373 32.1953 470.141C32.6829 469.904 33.2275 469.785 33.8291 469.785C34.8226 469.785 35.6019 470.036 36.167 470.537C36.7367 471.034 37.0215 471.727 37.0215 472.615C37.0215 473.062 36.8779 473.483 36.5908 473.88C36.3083 474.272 35.9414 474.568 35.4902 474.769C36.0371 474.955 36.4518 475.249 36.7344 475.65C37.0215 476.051 37.165 476.53 37.165 477.086C37.165 477.979 36.8574 478.69 36.2422 479.219C35.6315 479.747 34.8271 480.012 33.8291 480.012C32.8721 480.012 32.0882 479.757 31.4775 479.246C30.8669 478.736 30.5615 478.057 30.5615 477.209H32.2227C32.2227 477.646 32.3685 478.002 32.6602 478.275C32.9564 478.549 33.3529 478.686 33.8496 478.686C34.3646 478.686 34.7702 478.549 35.0664 478.275C35.3626 478.002 35.5107 477.605 35.5107 477.086C35.5107 476.562 35.3558 476.159 35.0459 475.876C34.736 475.593 34.2757 475.452 33.665 475.452H32.6875V474.14Z" fill="#E8EDF9" />
		<rect width="84.125" height="88.375" transform="translate(24 640.625)" fill="#B7C0D8" />
		<path d="M99.9209 720.308H96.0654L95.2588 722.625H93.4609L97.2207 712.672H98.7725L102.539 722.625H100.734L99.9209 720.308ZM96.5508 718.913H99.4355L97.9932 714.784L96.5508 718.913Z" fill="#E8EDF9" />
		<path d="M35.2646 656.625H33.6104V648.634L31.1699 649.468V648.066L35.0527 646.638H35.2646V656.625Z" fill="#E8EDF9" />
		<path d="M57.2995 656.275C57.9379 656.275 58.5365 656.454 59.0521 656.767C59.5677 656.454 60.1662 656.275 60.8047 656.275H70.444C71.0825 656.275 71.6811 656.454 72.1966 656.767C72.7122 656.454 73.3108 656.275 73.9492 656.275H82.7122C84.6481 656.275 86.2174 657.923 86.2174 659.957V668.242C86.2174 669.401 85.698 670.493 84.8154 671.188L79.4067 675.449L80.9382 689.929C81.3437 693.763 83.0422 695.708 85.5164 699.173C85.9715 699.811 86.2174 700.586 86.2174 701.383V708.747C86.2174 710.781 84.6481 712.43 82.7122 712.43H48.5365C46.6006 712.43 45.0312 710.781 45.0312 708.747V701.383C45.0312 700.586 45.2772 699.811 45.7323 699.173C48.2065 695.708 49.905 693.763 50.3105 689.929L51.842 675.449L46.4333 671.188C45.5507 670.493 45.0312 669.401 45.0312 668.242V659.957C45.0312 657.923 46.6006 656.275 48.5365 656.275H57.2995Z" fill="#34364C" />
		<path d="M48.5366 659.957H57.2996V665.48H60.8048V659.957H70.4442V665.48H73.9494V659.957H82.7124V668.242L75.702 673.766L77.4546 690.336H53.7944L55.547 673.766L48.5366 668.242V659.957Z" fill="#F4F7FA" />
		<path d="M53.7944 694.018H77.4546L82.7124 701.383V708.747H48.5366V701.383L53.7944 694.018Z" fill="#F4F7FA" />
		<rect width="84.125" height="88.375" transform="translate(192.25 110.375)" fill="#B7C0D8" />
		<path d="M223.015 159.282C222.597 159.882 222.098 160.507 221.516 161.149C219.463 163.416 216.946 165.282 215.321 166.257L215.047 166.421C213.955 167.077 213.281 168.297 213.281 169.619V178.497C213.281 180.531 214.851 182.18 216.786 182.18H250.962C252.898 182.18 254.467 180.531 254.467 178.497V169.619C254.467 168.297 253.793 167.077 252.701 166.421L252.428 166.257C250.803 165.282 248.286 163.416 246.233 161.149C245.651 160.507 245.152 159.882 244.734 159.282C246.272 158.893 247.415 157.438 247.415 155.702V149.708C247.415 148.512 246.862 147.39 245.931 146.7L244.443 145.596C245.302 143.843 245.788 141.853 245.788 139.746C245.788 132.676 240.333 126.945 233.603 126.945C226.874 126.945 221.418 132.676 221.418 139.746C221.418 141.971 221.961 144.065 222.911 145.888L221.817 146.7C220.887 147.39 220.333 148.512 220.333 149.708V155.702C220.333 157.438 221.476 158.893 223.015 159.282Z" fill="#F4F7FA" />
		<path d="M242.283 139.746C242.283 142.39 241.211 144.772 239.499 146.437L243.91 149.708V155.702H239.592C239.8 158.481 241.497 161.261 243.693 163.687C246.023 166.261 248.827 168.337 250.689 169.454L250.962 169.618V178.497H216.787V169.618L217.06 169.454C218.922 168.337 221.726 166.261 224.056 163.687C226.252 161.261 227.949 158.481 228.157 155.702H223.839V149.708L227.947 146.662C226.096 144.99 224.924 142.511 224.924 139.746C224.924 134.71 228.81 130.628 233.603 130.628C238.397 130.628 242.283 134.71 242.283 139.746Z" fill="#34364C" />
		<rect width="84.125" height="88.375" transform="translate(192.25 287.125)" fill="#B7C0D8" />
		<rect width="84.125" height="88.375" transform="translate(192.25 463.875)" fill="#B7C0D8" />
		<rect width="84.125" height="88.375" transform="translate(192.25 640.625)" fill="#B7C0D8" />
		<path d="M270.283 719.385C270.183 720.447 269.791 721.276 269.107 721.873C268.424 722.465 267.515 722.762 266.38 722.762C265.587 722.762 264.887 722.575 264.281 722.201C263.68 721.823 263.215 721.287 262.887 720.595C262.559 719.902 262.388 719.098 262.374 718.182V717.252C262.374 716.313 262.54 715.486 262.873 714.771C263.206 714.055 263.682 713.504 264.302 713.116C264.926 712.729 265.646 712.535 266.462 712.535C267.56 712.535 268.444 712.834 269.114 713.431C269.784 714.028 270.174 714.871 270.283 715.96H268.561C268.479 715.244 268.269 714.729 267.932 714.415C267.599 714.096 267.109 713.937 266.462 713.937C265.71 713.937 265.131 714.212 264.726 714.764C264.325 715.311 264.119 716.115 264.11 717.177V718.059C264.11 719.134 264.302 719.954 264.685 720.52C265.072 721.085 265.637 721.367 266.38 721.367C267.059 721.367 267.569 721.215 267.911 720.909C268.253 720.604 268.469 720.096 268.561 719.385H270.283Z" fill="#E8EDF9" />
		<path d="M225.825 667.215C225.473 666.198 225.28 665.101 225.28 663.958C225.28 658.698 229.339 654.434 234.346 654.434C239.354 654.434 243.413 658.698 243.413 663.958C243.413 665.499 243.062 666.959 242.441 668.251C243.335 668.316 244.204 668.739 244.837 669.5C248.279 673.632 251.291 679.524 251.291 686.353C251.291 691.235 249.691 694.853 247.529 697.46L251.635 698.216C253.312 698.525 254.535 700.055 254.535 701.843V708.747C254.535 709.724 254.166 710.661 253.508 711.351C252.851 712.042 251.959 712.43 251.03 712.43L217.663 712.43C215.727 712.43 214.158 710.781 214.158 708.747V701.843C214.158 700.057 215.378 698.528 217.052 698.217L220.757 697.529C218.565 694.917 216.938 691.279 216.938 686.353C216.938 681.025 218.904 676.385 221.209 672.829C222.658 670.593 224.298 668.696 225.825 667.215Z" fill="#34364C" />
		<path d="M236.065 685.866H232.56C232.56 679.104 234.512 672.354 238.831 667.413C239.507 666.446 239.907 665.251 239.907 663.958C239.907 660.731 237.417 658.116 234.346 658.116C231.275 658.116 228.785 660.731 228.785 663.958C228.785 665.55 229.391 666.993 230.374 668.047C226.9 670.648 220.443 677.622 220.443 686.353C220.443 695.164 227.019 698.731 230.469 699.463L217.663 701.843V708.747L251.029 708.747V701.843L237.92 699.428C241.408 698.621 247.785 695.03 247.785 686.353C247.785 680.671 245.266 675.607 242.199 671.924C238.831 674.686 236.065 681.13 236.065 685.866Z" fill="#F4F7FA" />
		<rect width="84.125" height="88.375" transform="translate(360.5 110.375)" fill="#B7C0D8" />
		<path d="M391.265 159.282C390.847 159.882 390.348 160.507 389.766 161.149C387.713 163.416 385.196 165.282 383.571 166.257L383.297 166.421C382.205 167.077 381.531 168.297 381.531 169.619V178.497C381.531 180.531 383.101 182.18 385.036 182.18H419.212C421.148 182.18 422.717 180.531 422.717 178.497V169.619C422.717 168.297 422.043 167.077 420.951 166.421L420.678 166.257C419.053 165.282 416.536 163.416 414.483 161.149C413.901 160.507 413.402 159.882 412.984 159.282C414.522 158.893 415.665 157.438 415.665 155.702V149.708C415.665 148.512 415.112 147.39 414.182 146.7L412.693 145.596C413.552 143.843 414.038 141.853 414.038 139.746C414.038 132.676 408.583 126.945 401.853 126.945C395.124 126.945 389.668 132.676 389.668 139.746C389.668 141.971 390.211 144.065 391.161 145.888L390.067 146.7C389.137 147.39 388.583 148.512 388.583 149.708V155.702C388.583 157.438 389.726 158.893 391.265 159.282Z" fill="#F4F7FA" />
		<path d="M410.533 139.746C410.533 142.39 409.461 144.772 407.749 146.437L412.16 149.708V155.702H407.842C408.05 158.481 409.747 161.261 411.943 163.687C414.273 166.261 417.077 168.337 418.939 169.454L419.212 169.618V178.497H385.037V169.618L385.31 169.454C387.172 168.337 389.976 166.261 392.306 163.687C394.502 161.261 396.199 158.481 396.407 155.702H392.089V149.708L396.197 146.662C394.346 144.99 393.174 142.511 393.174 139.746C393.174 134.71 397.06 130.628 401.853 130.628C406.647 130.628 410.533 134.71 410.533 139.746Z" fill="#34364C" />
		<rect width="84.125" height="88.375" transform="translate(360.5 287.125)" fill="#B7C0D8" />
		<rect width="84.125" height="88.375" transform="translate(360.5 463.875)" fill="#B7C0D8" />
		<rect width="84.125" height="88.375" transform="translate(360.5 640.625)" fill="#B7C0D8" />
		<path d="M437.371 718.182H433.283V721.244H438.062V722.625H431.554V712.672H438.014V714.066H433.283V716.814H437.371V718.182Z" fill="#E8EDF9" />
		<g clip-path="url(#clip0)">
			<path fill-rule="evenodd" clip-rule="evenodd" d="M397.306 655.239C397.366 653.251 398.917 651.672 400.81 651.672H406.068C407.961 651.672 409.512 653.251 409.571 655.239L409.602 656.275H411.326C413.261 656.275 414.831 657.923 414.831 659.957V662.19C418.652 661.282 422.776 661.889 426.276 664.953C433.548 671.319 432.878 684.663 424.248 691.962C422.166 693.724 420.53 695.184 419.403 696.689C419.146 697.032 418.926 697.364 418.741 697.689L422.293 698.194C424.031 698.441 425.328 700 425.328 701.843V708.747C425.328 710.781 423.759 712.43 421.823 712.43H385.054C383.119 712.43 381.549 710.781 381.549 708.747V701.843C381.549 700 382.846 698.441 384.585 698.194L388.137 697.689C387.952 697.364 387.732 697.032 387.474 696.689C386.348 695.184 384.712 693.724 382.629 691.962C373.999 684.663 373.33 671.319 380.602 664.953C384.102 661.889 388.226 661.282 392.047 662.19V659.957C392.047 657.923 393.616 656.275 395.552 656.275H397.276L397.306 655.239Z" fill="#34364C" />
			<path fill-rule="evenodd" clip-rule="evenodd" d="M400.81 655.354H406.068L406.205 659.957H411.326V665.48H406.369L406.61 671.734C406.706 671.615 406.805 671.498 406.907 671.385C411.694 666.039 418.792 663.195 424.032 667.782C429.29 672.385 429.29 682.971 422.05 689.094C417.95 692.563 414.276 695.906 414.457 700.797L421.823 701.843V708.747H385.055V701.843L392.42 700.797C392.601 695.906 388.928 692.563 384.827 689.094C377.588 682.971 377.588 672.385 382.846 667.782C388.086 663.195 395.184 666.039 399.971 671.385C400.073 671.498 400.172 671.615 400.268 671.734L400.509 665.48H395.552V659.957H400.673L400.81 655.354ZM395.857 676.503C399.07 682.032 399.496 688.495 399.496 691.306C397.885 691.309 391.814 688.503 388.599 683.896C386.285 680.58 385.682 675.66 387.666 673.75C389.649 671.839 393.849 673.047 395.857 676.503ZM411.021 676.503C407.808 682.032 407.382 688.495 407.382 691.306C408.993 691.309 415.064 688.503 418.279 683.896C420.593 680.58 421.196 675.66 419.212 673.75C417.229 671.839 413.029 673.047 411.021 676.503Z" fill="#F4F7FA" />
		</g>
		<rect width="84.1249" height="88.375" transform="translate(528.75 110.375)" fill="#B7C0D8" />
		<path d="M559.515 159.282C559.097 159.882 558.598 160.507 558.016 161.149C555.963 163.416 553.446 165.282 551.821 166.257L551.547 166.421C550.455 167.077 549.781 168.297 549.781 169.619V178.497C549.781 180.531 551.351 182.18 553.286 182.18H587.462C589.398 182.18 590.967 180.531 590.967 178.497V169.619C590.967 168.297 590.293 167.077 589.201 166.421L588.928 166.257C587.303 165.282 584.786 163.416 582.733 161.149C582.151 160.507 581.652 159.882 581.234 159.282C582.772 158.893 583.915 157.438 583.915 155.702V149.708C583.915 148.512 583.362 147.39 582.431 146.7L580.943 145.596C581.802 143.843 582.288 141.853 582.288 139.746C582.288 132.676 576.833 126.945 570.103 126.945C563.374 126.945 557.918 132.676 557.918 139.746C557.918 141.971 558.461 144.065 559.411 145.888L558.317 146.7C557.387 147.39 556.833 148.512 556.833 149.708V155.702C556.833 157.438 557.976 158.893 559.515 159.282Z" fill="#F4F7FA" />
		<path d="M578.783 139.746C578.783 142.39 577.711 144.772 575.999 146.437L580.41 149.708V155.702H576.092C576.3 158.481 577.997 161.261 580.193 163.687C582.523 166.261 585.327 168.337 587.189 169.454L587.462 169.618V178.497H553.287V169.618L553.56 169.454C555.422 168.337 558.226 166.261 560.556 163.687C562.752 161.261 564.449 158.481 564.657 155.702H560.339V149.708L564.447 146.662C562.596 144.99 561.424 142.511 561.424 139.746C561.424 134.71 565.31 130.628 570.103 130.628C574.897 130.628 578.783 134.71 578.783 139.746Z" fill="#34364C" />
		<rect width="84.1249" height="88.375" transform="translate(528.75 287.125)" fill="#B7C0D8" />
		<rect width="84.1249" height="88.375" transform="translate(528.75 463.875)" fill="#B7C0D8" />
		<rect width="84.1249" height="88.375" transform="translate(528.75 640.625)" fill="#B7C0D8" />
		<path d="M606.626 721.333C606.266 721.802 605.767 722.158 605.129 722.399C604.491 722.641 603.766 722.762 602.955 722.762C602.121 722.762 601.383 722.573 600.74 722.194C600.098 721.816 599.601 721.276 599.25 720.574C598.904 719.868 598.724 719.045 598.71 718.106V717.327C598.71 715.823 599.07 714.65 599.79 713.807C600.51 712.959 601.515 712.535 602.805 712.535C603.912 712.535 604.792 712.809 605.443 713.355C606.095 713.902 606.487 714.691 606.619 715.721H604.924C604.732 714.522 604.037 713.923 602.839 713.923C602.064 713.923 601.474 714.203 601.068 714.764C600.667 715.32 600.46 716.138 600.446 717.218V717.983C600.446 719.059 600.672 719.895 601.123 720.492C601.579 721.085 602.21 721.381 603.017 721.381C603.901 721.381 604.53 721.18 604.903 720.779V718.831H602.853V717.519H606.626V721.333Z" fill="#E8EDF9" />
		<path d="M565.283 652.139C566.436 652.002 567.58 652.475 568.335 653.401L575.487 662.163C583.699 664.296 588.458 670.792 591.09 678.902C593.802 687.259 594.472 697.868 594.472 708.747C594.472 710.781 592.903 712.43 590.967 712.43H558.285C556.425 712.43 554.888 710.902 554.786 708.95C554.694 707.208 555.076 704.186 556.238 701.099L556.26 701.042C552.958 702.904 549.295 702.458 546.575 700.424C543.269 697.951 541.432 693.112 543.531 688.333C545.046 684.886 546.677 683.061 547.912 681.681C549.065 680.392 549.546 679.825 549.886 678.396C551.947 669.734 556.188 664.745 560.742 662.468C560.676 661.481 560.729 660.53 560.845 659.667C561.131 657.519 561.845 655.533 562.573 654.082C563.114 653.003 564.129 652.275 565.283 652.139Z" fill="#34364C" />
		<path fill-rule="evenodd" clip-rule="evenodd" d="M573.591 665.497L565.674 655.798C564.528 658.083 563.417 662.117 565.015 665.029C564.239 665.101 563.499 665.239 562.926 665.48C559.269 667.022 555.258 671.004 553.286 679.289C552.715 681.688 551.688 682.837 550.466 684.202C549.314 685.49 547.99 686.971 546.714 689.876C544.085 695.859 551.18 701.843 556.353 696.408C559.262 693.353 561.804 692.091 563.939 691.032C567.011 689.508 569.238 688.403 570.496 682.971C571.095 685.505 570.855 691.485 565.109 695.133C559.363 698.782 558.166 706.467 558.285 708.747H590.967C590.967 687.098 588.239 668.394 573.591 665.497Z" fill="#F4F7FA" />
		<ellipse cx="563.802" cy="676.527" rx="2.6289" ry="2.76172" fill="#34364C" />
		<rect width="84.125" height="88.375" transform="translate(360.5 22)" fill="#E8EDF9" />
		<g clip-path="url(#clip1)">
			<path fill-rule="evenodd" clip-rule="evenodd" d="M397.306 36.6142C397.366 34.6262 398.917 33.0469 400.81 33.0469H406.068C407.961 33.0469 409.512 34.6262 409.571 36.6142L409.602 37.6497H411.326C413.261 37.6497 414.831 39.2984 414.831 41.332V43.5654C418.652 42.6571 422.776 43.2638 426.276 46.3281C433.548 52.694 432.878 66.0384 424.248 73.3375C422.166 75.0989 420.53 76.5592 419.403 78.0638C419.146 78.4071 418.926 78.7392 418.741 79.0643L422.293 79.569C424.031 79.816 425.328 81.3752 425.328 83.2181V90.1224C425.328 92.1561 423.759 93.8047 421.823 93.8047H385.054C383.119 93.8047 381.549 92.1561 381.549 90.1224V83.2181C381.549 81.3752 382.846 79.816 384.585 79.569L388.137 79.0643C387.952 78.7392 387.732 78.4071 387.474 78.0638C386.348 76.5592 384.712 75.0989 382.629 73.3375C373.999 66.0384 373.33 52.694 380.602 46.3281C384.102 43.2638 388.226 42.6571 392.047 43.5654V41.332C392.047 39.2984 393.616 37.6497 395.552 37.6497H397.276L397.306 36.6142Z" fill="#F4F7FA" />
			<path fill-rule="evenodd" clip-rule="evenodd" d="M400.81 36.7292H406.068L406.205 41.332H411.326V46.8555H406.369L406.61 53.1089C406.706 52.99 406.805 52.8734 406.907 52.7595C411.694 47.4143 418.792 44.5699 424.032 49.1569C429.29 53.7598 429.29 64.3463 422.05 70.4692C417.95 73.9376 414.276 77.2812 414.457 82.1715L421.823 83.2181V90.1224H385.055V83.2181L392.42 82.1715C392.601 77.2812 388.928 73.9376 384.827 70.4692C377.588 64.3463 377.588 53.7598 382.846 49.1569C388.086 44.5699 395.184 47.4143 399.971 52.7595C400.073 52.8734 400.172 52.99 400.268 53.1089L400.509 46.8555H395.552V41.332H400.673L400.81 36.7292ZM395.857 57.8776C399.07 63.4066 399.496 69.8698 399.496 72.6805C397.885 72.6835 391.814 69.8776 388.599 65.2712C386.285 61.9549 385.682 57.0347 387.666 55.1245C389.649 53.2143 393.849 54.422 395.857 57.8776ZM411.021 57.8776C407.808 63.4066 407.382 69.8698 407.382 72.6805C408.993 72.6835 415.064 69.8776 418.279 65.2712C420.593 61.9549 421.196 57.0347 419.212 55.1245C417.229 53.2143 413.029 54.422 411.021 57.8776Z" fill="#34364C" />
		</g>
		<rect width="84.125" height="88.375" transform="translate(360.5 198.75)" fill="#E8EDF9" />
		<rect width="84.125" height="88.375" transform="translate(360.5 375.5)" fill="#E8EDF9" />
		<rect width="84.125" height="88.375" transform="translate(360.5 552.25)" fill="#E8EDF9" />
		<path d="M391.265 601.157C390.847 601.757 390.348 602.382 389.766 603.024C387.713 605.291 385.196 607.157 383.571 608.132L383.297 608.296C382.205 608.952 381.531 610.172 381.531 611.494V620.372C381.531 622.406 383.101 624.055 385.036 624.055H419.212C421.148 624.055 422.717 622.406 422.717 620.372V611.494C422.717 610.172 422.043 608.952 420.951 608.296L420.678 608.132C419.053 607.157 416.536 605.291 414.483 603.024C413.901 602.382 413.402 601.757 412.984 601.157C414.522 600.768 415.665 599.313 415.665 597.577V591.583C415.665 590.387 415.112 589.265 414.181 588.575L412.693 587.471C413.552 585.718 414.038 583.728 414.038 581.621C414.038 574.551 408.583 568.82 401.853 568.82C395.124 568.82 389.668 574.551 389.668 581.621C389.668 583.846 390.211 585.94 391.161 587.763L390.067 588.575C389.137 589.265 388.583 590.387 388.583 591.583V597.577C388.583 599.313 389.726 600.768 391.265 601.157Z" fill="#34364C" />
		<path d="M410.533 581.621C410.533 584.265 409.461 586.647 407.749 588.312L412.16 591.583V597.577H407.842C408.05 600.356 409.747 603.136 411.943 605.562C414.273 608.136 417.077 610.212 418.939 611.329L419.212 611.494V620.372H385.037V611.494L385.31 611.329C387.172 610.212 389.976 608.136 392.306 605.562C394.502 603.136 396.199 600.356 396.407 597.577H392.089V591.583L396.197 588.537C394.346 586.865 393.174 584.386 393.174 581.621C393.174 576.585 397.06 572.503 401.853 572.503C406.647 572.503 410.533 576.585 410.533 581.621Z" fill="#F4F7FA" />
		<rect width="84.125" height="88.375" transform="translate(192.25 22)" fill="#E8EDF9" />
		<path d="M225.825 48.5897C225.473 47.5732 225.28 46.476 225.28 45.333C225.28 40.0728 229.339 35.8086 234.346 35.8086C239.354 35.8086 243.413 40.0728 243.413 45.333C243.413 46.8738 243.062 48.3344 242.441 49.6259C243.335 49.6909 244.204 50.1141 244.837 50.8747C248.279 55.0069 251.291 60.8986 251.291 67.7277C251.291 72.61 249.691 76.2278 247.529 78.8346L251.635 79.5912C253.312 79.9001 254.535 81.4298 254.535 83.2181V90.1224C254.535 91.099 254.166 92.0356 253.508 92.7262C252.851 93.4167 251.959 93.8047 251.03 93.8047L217.663 93.8047C215.727 93.8047 214.158 92.1561 214.158 90.1224V83.2181C214.158 81.4319 215.378 79.9033 217.052 79.5921L220.756 78.9037C218.565 76.292 216.938 72.6539 216.938 67.7277C216.938 62.3997 218.904 57.7596 221.209 54.2035C222.658 51.9684 224.298 50.0708 225.825 48.5897Z" fill="#F4F7FA" />
		<path d="M236.065 67.2408H232.56C232.56 60.4794 234.512 53.7293 238.831 48.7883C239.507 47.8206 239.907 46.6258 239.907 45.333C239.907 42.1065 237.417 39.4909 234.346 39.4909C231.275 39.4909 228.785 42.1065 228.785 45.333C228.785 46.9248 229.391 48.368 230.374 49.4217C226.9 52.0233 220.443 58.9968 220.443 67.7277C220.443 76.5387 227.019 80.1058 230.469 80.8381L217.663 83.2181V90.1224L251.029 90.1224V83.2181L237.92 80.8027C241.408 79.9959 247.785 76.4045 247.785 67.7277C247.785 62.0463 245.266 56.9818 242.199 53.2995C238.831 56.0612 236.065 62.5052 236.065 67.2408Z" fill="#34364C" />
		<rect width="84.125" height="88.375" transform="translate(192.25 198.75)" fill="#E8EDF9" />
		<rect width="84.125" height="88.3751" transform="translate(192.25 375.5)" fill="#E8EDF9" />
		<rect width="84.125" height="88.375" transform="translate(192.25 552.25)" fill="#E8EDF9" />
		<path d="M223.015 601.157C222.597 601.757 222.098 602.382 221.516 603.024C219.463 605.291 216.946 607.157 215.321 608.132L215.047 608.296C213.955 608.952 213.281 610.172 213.281 611.494V620.372C213.281 622.406 214.851 624.055 216.786 624.055H250.962C252.898 624.055 254.467 622.406 254.467 620.372V611.494C254.467 610.172 253.793 608.952 252.701 608.296L252.428 608.132C250.803 607.157 248.286 605.291 246.233 603.024C245.651 602.382 245.152 601.757 244.734 601.157C246.272 600.768 247.415 599.313 247.415 597.577V591.583C247.415 590.387 246.862 589.265 245.931 588.575L244.443 587.471C245.302 585.718 245.788 583.728 245.788 581.621C245.788 574.551 240.333 568.82 233.603 568.82C226.874 568.82 221.418 574.551 221.418 581.621C221.418 583.846 221.961 585.94 222.911 587.763L221.817 588.575C220.887 589.265 220.333 590.387 220.333 591.583V597.577C220.333 599.313 221.476 600.768 223.015 601.157Z" fill="#34364C" />
		<path d="M242.283 581.621C242.283 584.265 241.211 586.647 239.499 588.312L243.91 591.583V597.577H239.592C239.8 600.356 241.497 603.136 243.693 605.562C246.023 608.136 248.827 610.212 250.689 611.329L250.962 611.494V620.372H216.787V611.494L217.06 611.329C218.922 610.212 221.726 608.136 224.056 605.562C226.252 603.136 227.949 600.356 228.157 597.577H223.839V591.583L227.947 588.537C226.096 586.865 224.924 584.386 224.924 581.621C224.924 576.585 228.81 572.503 233.603 572.503C238.397 572.503 242.283 576.585 242.283 581.621Z" fill="#F4F7FA" />
		<rect width="84.1249" height="88.375" transform="translate(528.75 22)" fill="#E8EDF9" />
		<path d="M565.283 33.5136C566.436 33.3773 567.58 33.85 568.335 34.776L575.487 43.5385C583.699 45.6705 588.458 52.167 591.09 60.2771C593.802 68.6339 594.472 79.243 594.472 90.1224C594.472 92.156 592.903 93.8047 590.967 93.8047H558.285C556.425 93.8047 554.888 92.2771 554.786 90.3251C554.694 88.5833 555.076 85.5608 556.238 82.4737L556.259 82.4172C552.958 84.2787 549.295 83.8329 546.575 81.7986C543.269 79.3264 541.432 74.4868 543.531 69.7076C545.046 66.2612 546.677 64.4362 547.912 63.0559C549.065 61.7666 549.546 61.1996 549.886 59.771C551.947 51.1093 556.188 46.1196 560.742 43.8425C560.676 42.8557 560.729 41.9051 560.845 41.0419C561.131 38.8935 561.845 36.9081 562.573 35.4567C563.114 34.3775 564.129 33.6499 565.283 33.5136Z" fill="#F4F7FA" />
		<path fill-rule="evenodd" clip-rule="evenodd" d="M573.591 46.8725L565.674 37.1728C564.528 39.4582 563.417 43.4918 565.015 46.4036C564.239 46.4761 563.499 46.6139 562.926 46.8555C559.269 48.3968 555.258 52.3789 553.286 60.664C552.715 63.0631 551.688 64.212 550.466 65.5774C549.314 66.8654 547.99 68.3461 546.714 71.2506C544.085 77.2344 551.18 83.2181 556.353 77.7833C559.262 74.7278 561.804 73.4664 563.939 72.4074C567.011 70.8832 569.238 69.7781 570.496 64.3463C571.095 66.88 570.855 72.8595 565.109 76.508C559.363 80.1565 558.166 87.842 558.285 90.1223H590.967C590.967 68.4735 588.239 49.7689 573.591 46.8725Z" fill="#34364C" />
		<ellipse cx="563.802" cy="57.9023" rx="2.6289" ry="2.76172" fill="#F4F7FA" />
		<rect width="84.1249" height="88.375" transform="translate(528.75 198.75)" fill="#E8EDF9" />
		<rect width="84.1249" height="88.3751" transform="translate(528.75 375.5)" fill="#E8EDF9" />
		<rect width="84.1249" height="88.375" transform="translate(528.75 552.25)" fill="#E8EDF9" />
		<path d="M559.515 601.157C559.097 601.757 558.598 602.382 558.016 603.024C555.963 605.291 553.446 607.157 551.821 608.132L551.547 608.296C550.455 608.952 549.781 610.172 549.781 611.494V620.372C549.781 622.406 551.351 624.055 553.286 624.055H587.462C589.398 624.055 590.967 622.406 590.967 620.372V611.494C590.967 610.172 590.293 608.952 589.201 608.296L588.928 608.132C587.303 607.157 584.786 605.291 582.733 603.024C582.151 602.382 581.652 601.757 581.234 601.157C582.772 600.768 583.915 599.313 583.915 597.577V591.583C583.915 590.387 583.362 589.265 582.431 588.575L580.943 587.471C581.802 585.718 582.288 583.728 582.288 581.621C582.288 574.551 576.833 568.82 570.103 568.82C563.374 568.82 557.918 574.551 557.918 581.621C557.918 583.846 558.46 585.94 559.411 587.763L558.317 588.575C557.387 589.265 556.833 590.387 556.833 591.583V597.577C556.833 599.313 557.976 600.768 559.515 601.157Z" fill="#34364C" />
		<path d="M578.783 581.621C578.783 584.265 577.711 586.647 575.999 588.312L580.41 591.583V597.577H576.092C576.3 600.356 577.997 603.136 580.193 605.562C582.523 608.136 585.327 610.212 587.189 611.329L587.462 611.494V620.372H553.287V611.494L553.56 611.329C555.422 610.212 558.226 608.136 560.556 605.562C562.752 603.136 564.449 600.356 564.657 597.577H560.339V591.583L564.447 588.537C562.596 586.865 561.424 584.386 561.424 581.621C561.424 576.585 565.31 572.503 570.103 572.503C574.897 572.503 578.783 576.585 578.783 581.621Z" fill="#F4F7FA" />
		<rect width="84.125" height="88.375" transform="translate(108.125 22)" fill="#B7C0D8" />
		<path d="M144.658 33.5136C145.812 33.3773 146.955 33.85 147.71 34.776L154.862 43.5385C163.075 45.6705 167.833 52.167 170.465 60.2771C173.177 68.6339 173.847 79.243 173.847 90.1224C173.847 92.1561 172.278 93.8047 170.342 93.8047H137.66C135.8 93.8047 134.263 92.2771 134.161 90.3252C134.069 88.5833 134.451 85.5609 135.613 82.4737L135.635 82.4172C132.333 84.2788 128.67 83.8329 125.95 81.7986C122.644 79.3264 120.807 74.4869 122.906 69.7076C124.421 66.2612 126.052 64.4362 127.287 63.0559C128.44 61.7667 128.921 61.1996 129.261 59.771C131.322 51.1093 135.563 46.1196 140.117 43.8425C140.051 42.8557 140.104 41.9051 140.22 41.042C140.506 38.8935 141.22 36.9081 141.948 35.4567C142.489 34.3775 143.504 33.6499 144.658 33.5136Z" fill="#F4F7FA" />
		<path fill-rule="evenodd" clip-rule="evenodd" d="M152.966 46.8725L145.049 37.1728C143.903 39.4582 142.793 43.4918 144.39 46.4036C143.614 46.4761 142.874 46.6139 142.301 46.8555C138.645 48.3968 134.633 52.3789 132.661 60.6641C132.09 63.0631 131.063 64.212 129.841 65.5774C128.689 66.8654 127.365 68.3461 126.089 71.2507C123.46 77.2344 130.555 83.2181 135.728 77.7833C138.637 74.7278 141.179 73.4665 143.314 72.4074C146.386 70.8832 148.613 69.7781 149.871 64.3463C150.47 66.88 150.23 72.8595 144.484 76.508C138.738 80.1566 137.541 87.8421 137.66 90.1224H170.342C170.342 68.4735 167.614 49.7689 152.966 46.8725Z" fill="#34364C" />
		<ellipse cx="143.177" cy="57.9023" rx="2.62891" ry="2.76172" fill="#F4F7FA" />
		<rect width="84.125" height="88.375" transform="translate(108.125 198.75)" fill="#B7C0D8" />
		<rect width="84.125" height="88.375" transform="translate(108.125 375.5)" fill="#B7C0D8" />
		<rect width="84.125" height="88.375" transform="translate(108.125 552.25)" fill="#B7C0D8" />
		<path d="M138.89 601.157C138.472 601.757 137.973 602.382 137.391 603.024C135.338 605.291 132.821 607.157 131.196 608.132L130.922 608.296C129.83 608.952 129.156 610.172 129.156 611.494V620.372C129.156 622.406 130.726 624.055 132.661 624.055H166.837C168.773 624.055 170.342 622.406 170.342 620.372V611.494C170.342 610.172 169.668 608.952 168.576 608.296L168.303 608.132C166.678 607.157 164.161 605.291 162.108 603.024C161.526 602.382 161.027 601.757 160.609 601.157C162.147 600.768 163.29 599.313 163.29 597.577V591.583C163.29 590.387 162.737 589.265 161.806 588.575L160.318 587.471C161.177 585.718 161.663 583.728 161.663 581.621C161.663 574.551 156.208 568.82 149.478 568.82C142.749 568.82 137.293 574.551 137.293 581.621C137.293 583.846 137.836 585.94 138.786 587.763L137.692 588.575C136.762 589.265 136.208 590.387 136.208 591.583V597.577C136.208 599.313 137.351 600.768 138.89 601.157Z" fill="#34364C" />
		<path d="M158.158 581.621C158.158 584.265 157.086 586.647 155.374 588.312L159.785 591.583V597.577H155.467C155.675 600.356 157.372 603.136 159.568 605.562C161.898 608.136 164.702 610.212 166.564 611.329L166.837 611.494V620.372H132.662V611.494L132.935 611.329C134.797 610.212 137.601 608.136 139.931 605.562C142.127 603.136 143.824 600.356 144.032 597.577H139.714V591.583L143.822 588.537C141.971 586.865 140.799 584.386 140.799 581.621C140.799 576.585 144.685 572.503 149.478 572.503C154.272 572.503 158.158 576.585 158.158 581.621Z" fill="#F4F7FA" />
		<rect width="84.125" height="88.375" transform="translate(108.125 110.375)" fill="#E8EDF9" />
		<path d="M138.89 159.282C138.472 159.882 137.973 160.507 137.391 161.149C135.338 163.416 132.821 165.282 131.196 166.257L130.922 166.421C129.83 167.077 129.156 168.297 129.156 169.619V178.497C129.156 180.531 130.726 182.18 132.661 182.18H166.837C168.773 182.18 170.342 180.531 170.342 178.497V169.619C170.342 168.297 169.668 167.077 168.576 166.421L168.303 166.257C166.678 165.282 164.161 163.416 162.108 161.149C161.526 160.507 161.027 159.882 160.609 159.282C162.147 158.893 163.29 157.438 163.29 155.702V149.708C163.29 148.512 162.737 147.39 161.806 146.7L160.318 145.596C161.177 143.843 161.663 141.853 161.663 139.746C161.663 132.676 156.208 126.945 149.478 126.945C142.749 126.945 137.293 132.676 137.293 139.746C137.293 141.971 137.836 144.065 138.786 145.888L137.692 146.7C136.762 147.39 136.208 148.512 136.208 149.708V155.702C136.208 157.438 137.351 158.893 138.89 159.282Z" fill="#F4F7FA" />
		<path d="M158.158 139.746C158.158 142.39 157.086 144.772 155.374 146.437L159.785 149.708V155.702H155.467C155.675 158.481 157.372 161.261 159.568 163.687C161.898 166.261 164.702 168.337 166.564 169.454L166.837 169.619V178.497H132.662V169.619L132.935 169.454C134.797 168.337 137.601 166.261 139.931 163.687C142.127 161.261 143.824 158.481 144.032 155.702H139.714V149.708L143.822 146.662C141.971 144.99 140.799 142.511 140.799 139.746C140.799 134.71 144.685 130.628 149.478 130.628C154.272 130.628 158.158 134.71 158.158 139.746Z" fill="#34364C" />
		<rect width="84.125" height="88.375" transform="translate(108.125 287.125)" fill="#E8EDF9" />
		<rect width="84.125" height="88.375" transform="translate(108.125 463.875)" fill="#E8EDF9" />
		<rect width="84.125" height="88.3749" transform="translate(108.125 640.625)" fill="#E8EDF9" />
		<path d="M178.721 722.625V712.672H182.132C183.257 712.672 184.114 712.897 184.702 713.349C185.29 713.8 185.584 714.472 185.584 715.365C185.584 715.821 185.461 716.231 185.215 716.596C184.969 716.96 184.609 717.243 184.135 717.443C184.673 717.589 185.087 717.865 185.379 718.271C185.675 718.672 185.823 719.155 185.823 719.72C185.823 720.654 185.522 721.372 184.921 721.873C184.324 722.374 183.467 722.625 182.351 722.625H178.721ZM180.45 718.134V721.244H182.371C182.913 721.244 183.337 721.11 183.643 720.841C183.948 720.572 184.101 720.198 184.101 719.72C184.101 718.685 183.572 718.157 182.515 718.134H180.45ZM180.45 716.862H182.146C182.683 716.862 183.103 716.742 183.403 716.5C183.709 716.254 183.861 715.908 183.861 715.461C183.861 714.969 183.72 714.613 183.438 714.395C183.16 714.176 182.724 714.066 182.132 714.066H180.45V716.862Z" fill="#B7C0D8" />
		<path d="M144.658 652.139C145.812 652.002 146.955 652.475 147.71 653.401L154.862 662.164C163.075 664.296 167.833 670.792 170.465 678.902C173.177 687.259 173.847 697.868 173.847 708.747C173.847 710.781 172.278 712.43 170.342 712.43H137.66C135.8 712.43 134.263 710.902 134.161 708.95C134.069 707.208 134.451 704.186 135.613 701.099L135.635 701.042C132.333 702.904 128.67 702.458 125.95 700.424C122.644 697.951 120.807 693.112 122.906 688.333C124.421 684.886 126.052 683.061 127.287 681.681C128.44 680.392 128.921 679.825 129.261 678.396C131.322 669.734 135.563 664.745 140.117 662.468C140.051 661.481 140.104 660.53 140.22 659.667C140.506 657.519 141.22 655.533 141.948 654.082C142.489 653.003 143.504 652.275 144.658 652.139Z" fill="#34364C" />
		<path fill-rule="evenodd" clip-rule="evenodd" d="M152.966 665.498L145.049 655.798C143.903 658.083 142.792 662.117 144.39 665.029C143.614 665.101 142.874 665.239 142.301 665.481C138.645 667.022 134.633 671.004 132.661 679.289C132.09 681.688 131.063 682.837 129.841 684.202C128.689 685.49 127.365 686.971 126.089 689.876C123.46 695.859 130.555 701.843 135.728 696.408C138.637 693.353 141.179 692.091 143.314 691.032C146.386 689.508 148.613 688.403 149.871 682.971C150.47 685.505 150.23 691.485 144.484 695.133C138.738 698.782 137.541 706.467 137.66 708.747H170.342C170.342 687.099 167.614 668.394 152.966 665.498Z" fill="#F4F7FA" />
		<ellipse cx="143.177" cy="676.527" rx="2.62891" ry="2.76172" fill="#34364C" />
		<g clip-path="url(#clip2)">
			<rect width="84.125" height="88.375" transform="translate(276.375 110.375)" fill="#E8EDF9" />
			<rect opacity="0.5" x="276.875" y="110.875" width="83.125" height="87.375" fill="#7B61FF" stroke="#B2A7FC" />
		</g>
		<g clip-path="url(#clip3)">
			<rect width="84.125" height="88.375" transform="translate(276.375 287.125)" fill="#E8EDF9" />
			<rect opacity="0.5" x="276.375" y="287.125" width="84.125" height="88.375" fill="#7B61FF" />
			<path d="M307.14 336.032C306.722 336.632 306.223 337.257 305.641 337.899C303.588 340.166 301.071 342.032 299.446 343.007L299.172 343.171C298.08 343.827 297.406 345.047 297.406 346.368V355.247C297.406 357.281 298.976 358.93 300.911 358.93H335.087C337.023 358.93 338.592 357.281 338.592 355.247V346.368C338.592 345.047 337.918 343.827 336.826 343.171L336.553 343.007C334.928 342.032 332.411 340.166 330.358 337.899C329.776 337.257 329.277 336.632 328.859 336.032C330.397 335.643 331.54 334.188 331.54 332.452V326.458C331.54 325.262 330.987 324.14 330.056 323.45L328.568 322.346C329.427 320.593 329.913 318.603 329.913 316.496C329.913 309.426 324.458 303.695 317.728 303.695C310.999 303.695 305.543 309.426 305.543 316.496C305.543 318.721 306.086 320.815 307.036 322.638L305.942 323.45C305.012 324.14 304.458 325.262 304.458 326.458V332.452C304.458 334.188 305.601 335.643 307.14 336.032Z" fill="#F4F7FA" />
			<path d="M326.408 316.496C326.408 319.14 325.336 321.522 323.624 323.187L328.035 326.458V332.452H323.717C323.925 335.231 325.622 338.011 327.818 340.437C330.148 343.011 332.952 345.087 334.814 346.204L335.087 346.368V355.247H300.912V346.368L301.185 346.204C303.047 345.087 305.851 343.011 308.181 340.437C310.377 338.011 312.074 335.231 312.282 332.452H307.964V326.458L312.072 323.412C310.221 321.74 309.049 319.261 309.049 316.496C309.049 311.46 312.935 307.378 317.728 307.378C322.522 307.378 326.408 311.46 326.408 316.496Z" fill="#34364C" />
		</g>
		<rect width="84.125" height="88.375" transform="translate(276.375 463.875)" fill="#E8EDF9" />
		<rect width="84.125" height="88.375" transform="translate(276.375 640.625)" fill="#E8EDF9" />
		<path d="M346.813 722.625V712.672H349.753C350.632 712.672 351.412 712.868 352.091 713.26C352.774 713.652 353.303 714.208 353.677 714.928C354.05 715.648 354.237 716.473 354.237 717.402V717.901C354.237 718.845 354.048 719.674 353.67 720.39C353.296 721.105 352.761 721.657 352.063 722.044C351.371 722.431 350.576 722.625 349.678 722.625H346.813ZM348.543 714.066V721.244H349.671C350.578 721.244 351.273 720.962 351.756 720.396C352.243 719.827 352.492 719.011 352.501 717.949V717.396C352.501 716.315 352.266 715.491 351.797 714.921C351.327 714.351 350.646 714.066 349.753 714.066H348.543Z" fill="#B7C0D8" />
		<path d="M302.664 660.878C302.664 661.787 302.803 662.661 303.061 663.479L301.33 664.332C299.896 662.77 297.883 661.798 295.654 661.798C291.298 661.798 287.767 665.508 287.767 670.083C287.767 674.162 290.573 677.553 294.267 678.241L298.423 693.208C298.51 693.521 298.635 693.82 298.797 694.097L301.192 698.214L301.177 698.217C299.503 698.528 298.283 700.057 298.283 701.843V708.747C298.283 710.781 299.852 712.43 301.788 712.43L335.155 712.43C336.084 712.43 336.976 712.042 337.633 711.351C338.291 710.661 338.66 709.724 338.66 708.747V701.843C338.66 700.055 337.437 698.525 335.76 698.216L335.69 698.203L338.078 694.097C338.24 693.82 338.366 693.521 338.452 693.208L342.608 678.241C346.303 677.553 349.108 674.162 349.108 670.083C349.108 665.508 345.577 661.798 341.222 661.798C338.99 661.798 336.974 662.772 335.54 664.338L333.812 663.486C334.071 662.666 334.211 661.789 334.211 660.878C334.211 656.302 330.68 652.592 326.324 652.592C321.969 652.592 318.438 656.302 318.438 660.878C318.438 656.302 314.907 652.592 310.551 652.592C306.195 652.592 302.664 656.302 302.664 660.878Z" fill="#34364C" />
		<path d="M312.123 665.175C313.766 664.511 314.932 662.837 314.932 660.878C314.932 658.335 312.97 656.275 310.551 656.275C308.131 656.275 306.169 658.335 306.169 660.878C306.169 663.227 307.844 665.165 310.008 665.446L308.054 682.051L298.635 673.456C299.496 672.616 300.035 671.416 300.035 670.083C300.035 667.541 298.073 665.48 295.653 665.48C293.234 665.48 291.272 667.541 291.272 670.083C291.272 672.625 293.234 674.686 295.653 674.686C296.079 674.686 296.491 674.622 296.881 674.503L301.788 692.177L306.862 700.9L301.788 701.843V708.747L335.155 708.747V701.843L330.015 700.896L335.087 692.177L339.994 674.503C340.383 674.622 340.795 674.686 341.221 674.686C343.641 674.686 345.603 672.625 345.603 670.083C345.603 667.541 343.641 665.48 341.221 665.48C338.801 665.48 336.84 667.541 336.84 670.083C336.84 671.416 337.379 672.616 338.24 673.456L328.82 682.051L326.866 665.446C329.03 665.165 330.706 663.227 330.706 660.878C330.706 658.335 328.744 656.275 326.324 656.275C323.904 656.275 321.943 658.335 321.943 660.878C321.943 662.837 323.108 664.511 324.751 665.175L318.437 680.21L312.123 665.175Z" fill="#F4F7FA" />
		<rect width="84.125" height="88.375" transform="translate(444.625 110.375)" fill="#E8EDF9" />
		<path d="M475.39 159.282C474.972 159.882 474.473 160.507 473.891 161.149C471.838 163.416 469.321 165.282 467.696 166.257L467.422 166.421C466.33 167.077 465.656 168.297 465.656 169.619V178.497C465.656 180.531 467.226 182.18 469.161 182.18H503.337C505.273 182.18 506.842 180.531 506.842 178.497V169.619C506.842 168.297 506.168 167.077 505.076 166.421L504.803 166.257C503.178 165.282 500.661 163.416 498.608 161.149C498.026 160.507 497.527 159.882 497.109 159.282C498.647 158.893 499.79 157.438 499.79 155.702V149.708C499.79 148.512 499.237 147.39 498.306 146.7L496.818 145.596C497.677 143.843 498.163 141.853 498.163 139.746C498.163 132.676 492.708 126.945 485.978 126.945C479.249 126.945 473.793 132.676 473.793 139.746C473.793 141.971 474.336 144.065 475.286 145.888L474.192 146.7C473.262 147.39 472.708 148.512 472.708 149.708V155.702C472.708 157.438 473.851 158.893 475.39 159.282Z" fill="#F4F7FA" />
		<path d="M494.658 139.746C494.658 142.39 493.586 144.772 491.874 146.437L496.285 149.708V155.702H491.967C492.175 158.481 493.872 161.261 496.068 163.687C498.398 166.261 501.202 168.337 503.064 169.454L503.337 169.618V178.497H469.162V169.618L469.435 169.454C471.297 168.337 474.101 166.261 476.431 163.687C478.627 161.261 480.324 158.481 480.532 155.702H476.214V149.708L480.322 146.662C478.471 144.99 477.299 142.511 477.299 139.746C477.299 134.71 481.185 130.628 485.978 130.628C490.772 130.628 494.658 134.71 494.658 139.746Z" fill="#34364C" />
		<rect width="84.125" height="88.375" transform="translate(444.625 287.125)" fill="#E8EDF9" />
		<rect width="84.125" height="88.375" transform="translate(444.625 463.875)" fill="#E8EDF9" />
		<rect width="84.125" height="88.375" transform="translate(444.625 640.625)" fill="#E8EDF9" />
		<path d="M521.523 718.407H517.518V722.625H515.788V712.672H522.111V714.066H517.518V717.026H521.523V718.407Z" fill="#B7C0D8" />
		<path d="M478.2 667.215C477.848 666.198 477.655 665.101 477.655 663.958C477.655 658.698 481.714 654.434 486.721 654.434C491.729 654.434 495.788 658.698 495.788 663.958C495.788 665.499 495.437 666.959 494.816 668.251C495.71 668.316 496.579 668.739 497.212 669.5C500.654 673.632 503.666 679.524 503.666 686.353C503.666 691.235 502.066 694.853 499.904 697.46L504.01 698.216C505.687 698.525 506.91 700.055 506.91 701.843V708.747C506.91 709.724 506.541 710.661 505.883 711.351C505.226 712.042 504.334 712.43 503.405 712.43L470.038 712.43C468.102 712.43 466.533 710.781 466.533 708.747V701.843C466.533 700.057 467.753 698.528 469.427 698.217L473.131 697.529C470.94 694.917 469.313 691.279 469.313 686.353C469.313 681.025 471.279 676.385 473.584 672.829C475.033 670.593 476.673 668.696 478.2 667.215Z" fill="#34364C" />
		<path d="M488.44 685.866H484.935C484.935 679.104 486.887 672.354 491.206 667.413C491.882 666.446 492.282 665.251 492.282 663.958C492.282 660.731 489.792 658.116 486.721 658.116C483.65 658.116 481.16 660.731 481.16 663.958C481.16 665.55 481.766 666.993 482.749 668.047C479.275 670.648 472.818 677.622 472.818 686.353C472.818 695.164 479.394 698.731 482.844 699.463L470.038 701.843V708.747L503.404 708.747V701.843L490.295 699.428C493.783 698.621 500.16 695.03 500.16 686.353C500.16 680.671 497.641 675.607 494.574 671.924C491.206 674.686 488.44 681.13 488.44 685.866Z" fill="#F4F7FA" />
		<rect width="84.125" height="88.375" transform="translate(612.875 110.375)" fill="#E8EDF9" />
		<path d="M643.64 159.282C643.222 159.882 642.723 160.507 642.141 161.149C640.088 163.416 637.571 165.282 635.946 166.257L635.672 166.421C634.58 167.077 633.906 168.297 633.906 169.619V178.497C633.906 180.531 635.476 182.18 637.411 182.18H671.587C673.523 182.18 675.092 180.531 675.092 178.497V169.619C675.092 168.297 674.418 167.077 673.326 166.421L673.053 166.257C671.428 165.282 668.911 163.416 666.858 161.149C666.276 160.507 665.777 159.882 665.359 159.282C666.897 158.893 668.04 157.438 668.04 155.702V149.708C668.04 148.512 667.487 147.39 666.556 146.7L665.068 145.596C665.927 143.843 666.413 141.853 666.413 139.746C666.413 132.676 660.958 126.945 654.228 126.945C647.499 126.945 642.043 132.676 642.043 139.746C642.043 141.971 642.586 144.065 643.536 145.888L642.442 146.7C641.512 147.39 640.958 148.512 640.958 149.708V155.702C640.958 157.438 642.101 158.893 643.64 159.282Z" fill="#F4F7FA" />
		<path d="M662.908 139.746C662.908 142.39 661.836 144.772 660.124 146.437L664.535 149.708V155.702H660.217C660.425 158.481 662.122 161.261 664.318 163.687C666.648 166.261 669.452 168.337 671.314 169.454L671.587 169.618V178.497H637.412V169.618L637.685 169.454C639.547 168.337 642.351 166.261 644.681 163.687C646.877 161.261 648.574 158.481 648.782 155.702H644.464V149.708L648.572 146.662C646.721 144.99 645.549 142.511 645.549 139.746C645.549 134.71 649.435 130.628 654.228 130.628C659.022 130.628 662.908 134.71 662.908 139.746Z" fill="#34364C" />
		<rect width="84.1251" height="88.375" transform="translate(612.875 287.125)" fill="#E8EDF9" />
		<rect width="84.125" height="88.375" transform="translate(612.875 463.875)" fill="#E8EDF9" />
		<rect width="84.125" height="88.3749" transform="translate(612.875 640.625)" fill="#E8EDF9" />
		<path d="M690.812 722.625H689.09V718.202H684.64V722.625H682.91V712.672H684.64V716.814H689.09V712.672H690.812V722.625Z" fill="#B7C0D8" />
		<path d="M646.174 656.275C646.813 656.275 647.412 656.454 647.927 656.767C648.443 656.454 649.041 656.275 649.68 656.275H659.319C659.957 656.275 660.556 656.454 661.072 656.767C661.587 656.454 662.186 656.275 662.824 656.275H671.587C673.523 656.275 675.092 657.923 675.092 659.957V668.242C675.092 669.401 674.573 670.493 673.69 671.188L668.282 675.449L669.813 689.929C670.219 693.763 671.917 695.708 674.391 699.173C674.846 699.811 675.092 700.586 675.092 701.383V708.747C675.092 710.781 673.523 712.43 671.587 712.43H637.411C635.476 712.43 633.906 710.781 633.906 708.747V701.383C633.906 700.586 634.152 699.811 634.607 699.173C637.082 695.708 638.78 693.763 639.186 689.929L640.717 675.449L635.308 671.188C634.426 670.493 633.906 669.401 633.906 668.242V659.957C633.906 657.923 635.476 656.275 637.411 656.275H646.174Z" fill="#34364C" />
		<path d="M637.412 659.957H646.175V665.481H649.68V659.957H659.319V665.481H662.824V659.957H671.587V668.242L664.577 673.766L666.33 690.336H642.669L644.422 673.766L637.412 668.242V659.957Z" fill="#F4F7FA" />
		<path d="M642.669 694.018H666.33L671.587 701.383V708.747H637.412V701.383L642.669 694.018Z" fill="#F4F7FA" />
		<rect width="84.125" height="88.375" transform="translate(444.625 22)" fill="#B7C0D8" />
		<path d="M478.2 48.5897C477.848 47.5732 477.655 46.476 477.655 45.333C477.655 40.0728 481.714 35.8086 486.721 35.8086C491.729 35.8086 495.788 40.0728 495.788 45.333C495.788 46.8738 495.437 48.3344 494.816 49.6259C495.71 49.6909 496.579 50.1141 497.212 50.8747C500.654 55.0069 503.666 60.8986 503.666 67.7277C503.666 72.61 502.066 76.2278 499.904 78.8346L504.01 79.5912C505.687 79.9001 506.91 81.4298 506.91 83.2181V90.1224C506.91 91.099 506.541 92.0356 505.883 92.7262C505.226 93.4167 504.334 93.8047 503.405 93.8047L470.038 93.8047C468.102 93.8047 466.533 92.1561 466.533 90.1224V83.2181C466.533 81.4319 467.753 79.9033 469.427 79.5921L473.131 78.9037C470.94 76.292 469.313 72.6539 469.313 67.7277C469.313 62.3997 471.279 57.7596 473.584 54.2035C475.033 51.9684 476.673 50.0708 478.2 48.5897Z" fill="#F4F7FA" />
		<path d="M488.44 67.2408H484.935C484.935 60.4794 486.887 53.7293 491.206 48.7883C491.882 47.8206 492.282 46.6258 492.282 45.333C492.282 42.1065 489.792 39.4909 486.721 39.4909C483.65 39.4909 481.16 42.1065 481.16 45.333C481.16 46.9248 481.766 48.368 482.749 49.4217C479.275 52.0233 472.818 58.9968 472.818 67.7277C472.818 76.5387 479.394 80.1058 482.844 80.8381L470.038 83.2181V90.1224L503.404 90.1224V83.2181L490.295 80.8027C493.783 79.9959 500.16 76.4045 500.16 67.7277C500.16 62.0463 497.641 56.9818 494.574 53.2995C491.206 56.0612 488.44 62.5052 488.44 67.2408Z" fill="#34364C" />
		<rect width="84.125" height="88.375" transform="translate(444.625 198.75)" fill="#B7C0D8" />
		<rect width="84.125" height="88.375" transform="translate(444.625 375.5)" fill="#B7C0D8" />
		<path d="M475.39 424.407C474.972 425.007 474.473 425.632 473.891 426.274C471.838 428.541 469.321 430.407 467.696 431.382L467.422 431.546C466.33 432.202 465.656 433.422 465.656 434.744V443.622C465.656 445.656 467.226 447.305 469.161 447.305H503.337C505.273 447.305 506.842 445.656 506.842 443.622V434.744C506.842 433.422 506.168 432.202 505.076 431.546L504.803 431.382C503.178 430.407 500.661 428.541 498.608 426.274C498.026 425.632 497.527 425.007 497.109 424.407C498.647 424.018 499.79 422.563 499.79 420.827V414.833C499.79 413.637 499.237 412.515 498.306 411.825L496.818 410.721C497.677 408.968 498.163 406.978 498.163 404.871C498.163 397.801 492.708 392.07 485.978 392.07C479.249 392.07 473.793 397.801 473.793 404.871C473.793 407.096 474.336 409.19 475.286 411.014L474.192 411.825C473.262 412.515 472.708 413.637 472.708 414.833V420.827C472.708 422.563 473.851 424.018 475.39 424.407Z" fill="#34364C" />
		<path d="M494.658 404.871C494.658 407.515 493.586 409.897 491.874 411.562L496.285 414.833V420.827H491.967C492.175 423.606 493.872 426.386 496.068 428.812C498.398 431.386 501.202 433.462 503.064 434.579L503.337 434.744V443.622H469.162V434.744L469.435 434.579C471.297 433.462 474.101 431.386 476.431 428.812C478.627 426.386 480.324 423.606 480.532 420.827H476.214V414.833L480.322 411.787C478.471 410.115 477.299 407.636 477.299 404.871C477.299 399.835 481.185 395.753 485.978 395.753C490.772 395.753 494.658 399.835 494.658 404.871Z" fill="#F4F7FA" />
		<rect width="84.125" height="88.375" transform="translate(444.625 552.25)" fill="#B7C0D8" />
		<rect width="84.125" height="88.375" transform="translate(276.375 22)" fill="#B7C0D8" />
		<path d="M302.664 42.2526C302.664 43.1615 302.803 44.0361 303.061 44.854L301.33 45.7067C299.896 44.1447 297.883 43.1732 295.654 43.1732C291.298 43.1732 287.767 46.8826 287.767 51.4584C287.767 55.5372 290.573 58.9277 294.267 59.6159L298.423 74.5832C298.51 74.8956 298.635 75.1946 298.797 75.4722L301.192 79.5894L301.177 79.5921C299.503 79.9033 298.283 81.4319 298.283 83.2181V90.1224C298.283 92.1561 299.852 93.8047 301.788 93.8047L335.155 93.8047C336.084 93.8047 336.976 93.4167 337.633 92.7262C338.291 92.0356 338.66 91.099 338.66 90.1224V83.2181C338.66 81.4298 337.437 79.9001 335.76 79.5912L335.69 79.5782L338.078 75.4722C338.24 75.1946 338.366 74.8956 338.452 74.5832L342.608 59.6159C346.302 58.9277 349.108 55.5372 349.108 51.4584C349.108 46.8826 345.577 43.1732 341.222 43.1732C338.99 43.1732 336.974 44.1472 335.54 45.7125L333.812 44.8614C334.071 44.0413 334.211 43.1643 334.211 42.2526C334.211 37.6769 330.68 33.9675 326.324 33.9675C321.969 33.9675 318.438 37.6769 318.438 42.2526C318.438 37.6769 314.907 33.9675 310.551 33.9675C306.195 33.9675 302.664 37.6769 302.664 42.2526Z" fill="#F4F7FA" />
		<path d="M312.123 46.55C313.766 45.8861 314.932 44.2124 314.932 42.2526C314.932 39.7105 312.97 37.6497 310.551 37.6497C308.131 37.6497 306.169 39.7105 306.169 42.2526C306.169 44.6018 307.844 46.5399 310.008 46.8206L308.054 63.4258L298.635 54.8314C299.496 53.9909 300.035 52.7907 300.035 51.4584C300.035 48.9163 298.073 46.8555 295.653 46.8555C293.234 46.8555 291.272 48.9163 291.272 51.4584C291.272 54.0004 293.234 56.0612 295.653 56.0612C296.079 56.0612 296.491 55.9974 296.881 55.8783L301.788 73.5521L306.862 82.2751L301.788 83.2181V90.1224L335.154 90.1224V83.2181L330.015 82.2712L335.087 73.5521L339.994 55.8783C340.383 55.9974 340.795 56.0612 341.221 56.0612C343.641 56.0612 345.603 54.0004 345.603 51.4584C345.603 48.9163 343.641 46.8555 341.221 46.8555C338.801 46.8555 336.84 48.9163 336.84 51.4584C336.84 52.7907 337.379 53.9909 338.24 54.8314L328.82 63.4258L326.866 46.8206C329.03 46.5399 330.706 44.6018 330.706 42.2526C330.706 39.7105 328.744 37.6497 326.324 37.6497C323.904 37.6497 321.943 39.7105 321.943 42.2526C321.943 44.2124 323.108 45.8861 324.751 46.55L318.437 61.5846L312.123 46.55Z" fill="#34364C" />
		<rect width="84.125" height="88.375" transform="translate(276.375 198.75)" fill="#B7C0D8" />
		<rect opacity="0.5" x="306.375" y="230.75" width="24" height="24" rx="12" fill="#7B61FF" />
		<rect width="84.125" height="88.3751" transform="translate(276.375 375.5)" fill="#B7C0D8" />
		<rect width="84.125" height="88.375" transform="translate(276.375 552.25)" fill="#B7C0D8" />
		<path d="M307.14 601.157C306.722 601.757 306.223 602.382 305.641 603.024C303.588 605.291 301.071 607.157 299.446 608.132L299.172 608.296C298.08 608.952 297.406 610.172 297.406 611.494V620.372C297.406 622.406 298.976 624.055 300.911 624.055H335.087C337.023 624.055 338.592 622.406 338.592 620.372V611.494C338.592 610.172 337.918 608.952 336.826 608.296L336.553 608.132C334.928 607.157 332.411 605.291 330.358 603.024C329.776 602.382 329.277 601.757 328.859 601.157C330.397 600.768 331.54 599.313 331.54 597.577V591.583C331.54 590.387 330.987 589.265 330.056 588.575L328.568 587.471C329.427 585.718 329.913 583.728 329.913 581.621C329.913 574.551 324.458 568.82 317.728 568.82C310.999 568.82 305.543 574.551 305.543 581.621C305.543 583.846 306.086 585.94 307.036 587.763L305.942 588.575C305.012 589.265 304.458 590.387 304.458 591.583V597.577C304.458 599.313 305.601 600.768 307.14 601.157Z" fill="#34364C" />
		<path d="M326.408 581.621C326.408 584.265 325.336 586.647 323.624 588.312L328.035 591.583V597.577H323.717C323.925 600.356 325.622 603.136 327.818 605.562C330.148 608.136 332.952 610.212 334.814 611.329L335.087 611.494V620.372H300.912V611.494L301.185 611.329C303.047 610.212 305.851 608.136 308.181 605.562C310.377 603.136 312.074 600.356 312.282 597.577H307.964V591.583L312.072 588.537C310.221 586.865 309.049 584.386 309.049 581.621C309.049 576.585 312.935 572.503 317.728 572.503C322.522 572.503 326.408 576.585 326.408 581.621Z" fill="#F4F7FA" />
		<rect width="84.1251" height="88.375" transform="translate(612.875 22)" fill="#B7C0D8" />
		<path d="M646.174 37.6497C646.813 37.6497 647.412 37.8291 647.927 38.1424C648.443 37.8291 649.041 37.6497 649.68 37.6497H659.319C659.957 37.6497 660.556 37.8291 661.072 38.1424C661.587 37.8291 662.186 37.6497 662.824 37.6497H671.587C673.523 37.6497 675.092 39.2984 675.092 41.332V49.6172C675.092 50.7762 674.573 51.8676 673.69 52.563L668.282 56.8245L669.813 71.3043C670.219 75.1378 671.917 77.0828 674.391 80.5484C674.846 81.1858 675.092 81.9611 675.092 82.7578V90.1224C675.092 92.1561 673.523 93.8047 671.587 93.8047H637.411C635.476 93.8047 633.906 92.1561 633.906 90.1224V82.7578C633.906 81.9611 634.152 81.1858 634.607 80.5484C637.082 77.0828 638.78 75.1378 639.186 71.3043L640.717 56.8245L635.308 52.563C634.426 51.8676 633.906 50.7762 633.906 49.6172V41.332C633.906 39.2984 635.476 37.6497 637.411 37.6497H646.174Z" fill="#F4F7FA" />
		<path d="M637.412 41.332H646.175V46.8555H649.68V41.332H659.319V46.8555H662.824V41.332H671.587V49.6172L664.577 55.1406L666.33 71.7109H642.669L644.422 55.1406L637.412 49.6172V41.332Z" fill="#34364C" />
		<path d="M642.669 75.3932H666.33L671.587 82.7578V90.1224H637.412V82.7578L642.669 75.3932Z" fill="#34364C" />
		<rect width="84.125" height="88.375" transform="translate(612.875 198.75)" fill="#B7C0D8" />
		<rect width="84.125" height="88.375" transform="translate(612.875 375.5)" fill="#B7C0D8" />
		<rect width="84.1251" height="88.375" transform="translate(612.875 552.25)" fill="#B7C0D8" />
		<path d="M643.64 601.157C643.222 601.757 642.723 602.382 642.141 603.024C640.088 605.291 637.571 607.157 635.946 608.132L635.672 608.296C634.58 608.952 633.906 610.172 633.906 611.494V620.372C633.906 622.406 635.476 624.055 637.411 624.055H671.587C673.523 624.055 675.092 622.406 675.092 620.372V611.494C675.092 610.172 674.418 608.952 673.326 608.296L673.053 608.132C671.428 607.157 668.911 605.291 666.858 603.024C666.276 602.382 665.777 601.757 665.359 601.157C666.897 600.768 668.04 599.313 668.04 597.577V591.583C668.04 590.387 667.487 589.265 666.557 588.575L665.068 587.471C665.927 585.718 666.413 583.728 666.413 581.621C666.413 574.551 660.958 568.82 654.228 568.82C647.499 568.82 642.043 574.551 642.043 581.621C642.043 583.846 642.586 585.94 643.536 587.763L642.442 588.575C641.512 589.265 640.958 590.387 640.958 591.583V597.577C640.958 599.313 642.101 600.768 643.64 601.157Z" fill="#34364C" />
		<path d="M662.908 581.621C662.908 584.265 661.836 586.647 660.124 588.312L664.535 591.583V597.577H660.217C660.425 600.356 662.122 603.136 664.318 605.562C666.648 608.136 669.452 610.212 671.314 611.329L671.587 611.494V620.372H637.412V611.494L637.685 611.329C639.547 610.212 642.351 608.136 644.681 605.562C646.877 603.136 648.574 600.356 648.782 597.577H644.464V591.583L648.572 588.537C646.721 586.865 645.549 584.386 645.549 581.621C645.549 576.585 649.435 572.503 654.228 572.503C659.022 572.503 662.908 576.585 662.908 581.621Z" fill="#F4F7FA" />
	</g>
	<defs>
		<filter id="filter0_d" x="0" y="0" width="721" height="755" filterUnits="userSpaceOnUse" color-interpolation-filters="sRGB">
			<feFlood flood-opacity="0" result="BackgroundImageFix" />
			<feColorMatrix in="SourceAlpha" type="matrix" values="0 0 0 0 0 0 0 0 0 0 0 0 0 0 0 0 0 0 127 0" result="hardAlpha" />
			<feOffset dy="2" />
			<feGaussianBlur stdDeviation="8" />
			<feColorMatrix type="matrix" values="0 0 0 0 0.783854 0 0 0 0 0.809375 0 0 0 0 0.875 0 0 0 0.5 0" />
			<feBlend mode="normal" in2="BackgroundImageFix" result="effect1_dropShadow" />
			<feBlend mode="normal" in="SourceGraphic" in2="effect1_dropShadow" result="shape" />
		</filter>
		<clipPath id="clip0">
			<rect width="63.0938" height="66.2812" fill="white" transform="translate(371.016 651.672)" />
		</clipPath>
		<clipPath id="clip1">
			<rect width="63.0938" height="66.2812" fill="white" transform="translate(371.016 33.0469)" />
		</clipPath>
		<clipPath id="clip2">
			<rect width="84.125" height="88.375" fill="white" transform="translate(276.375 110.375)" />
		</clipPath>
		<clipPath id="clip3">
			<rect width="84.125" height="88.375" fill="white" transform="translate(276.375 287.125)" />
		</clipPath>
	</defs>
</svg>
